# Made using Asset Forge (www.assetforge.io) version 1.3 

mtllib arrow.mtl 

g Floor_Tapered_Outer_Half_0

v -0.06923863 0 -0.3763456
v 0.2571069 0 -0.04999982
v -0.06923863 0.05 -0.3763456
v 0.2571069 0.05 -0.04999982
v -0.0692389 0 0.2763457
v -0.0692389 0.05 0.2763457
vn 0.5571071 0 -0.5571067
vn 0 -0.1 0
vn -0.787868 0 -2.384186E-07
vn 0 0.1 0
vn 0.5571066 0 0.557107
vt 0.3763455 0
vt 0.04999985 0
vt 0.3763455 0.05
vt 0.04999985 0.05
vt -0.2571068 0.04999985
vt 0.06923866 0.3763455
vt 0.0692389 -0.2763457
vt -0.3763455 0.05
vt 0.2763457 0.05
vt -0.3763455 0
vt 0.2763457 0
vt 0.0692389 0.2763457
vt 0.06923866 -0.3763455
vt -0.2571068 -0.04999985
vt -0.0692389 0.05
vt 0.2571068 0.05
vt -0.0692389 0
vt 0.2571068 0

usemtl Dark_Grey (Instance)
usemap Dark_Grey (Instance)
f 3/3/1 2/2/1 1/1/1
f 3/3/1 4/4/1 2/2/1
f 5/7/2 1/6/2 2/5/2
f 1/10/3 6/9/3 3/8/3
f 1/10/3 5/11/3 6/9/3
f 4/14/4 3/13/4 6/12/4
f 5/17/5 4/16/5 6/15/5
f 5/17/5 2/18/5 4/16/5
