# Made using Asset Forge (www.assetforge.io) version 1.3 

mtllib arrow.mtl 

g Floor_Tapered_Outer_Half_25

v -0.08994941 0 -0.2970563
v 0.2071068 0 5.960464E-08
v -0.08994941 0.05 -0.2970563
v 0.2071068 0.05 5.960464E-08
v -0.08994955 0 0.2970563
v -0.08994955 0.05 0.2970563
vn 0.507107 0 -0.5071068
vn 0 -0.1 0
vn -0.7171574 0 -5.960464E-08
vn 0 0.1 0
vn 0.5071067 0 0.5071069
vt 0.2970563 0
vt -5.960464E-08 0
vt 0.2970563 0.05
vt -5.960464E-08 0.05
vt -0.2071068 -5.960464E-08
vt 0.08994944 0.2970563
vt 0.08994955 -0.2970563
vt -0.2970563 0.05
vt 0.2970563 0.05
vt -0.2970563 0
vt 0.2970563 0
vt 0.08994955 0.2970563
vt 0.08994944 -0.2970563
vt -0.2071068 5.960464E-08
vt -0.08994955 0.05
vt 0.2071068 0.05
vt -0.08994955 0
vt 0.2071068 0

usemtl customMaterial4 (Instance)
usemap customMaterial4 (Instance)
f 3/3/1 2/2/1 1/1/1
f 3/3/1 4/4/1 2/2/1
f 5/7/2 1/6/2 2/5/2
f 1/10/3 6/9/3 3/8/3
f 1/10/3 5/11/3 6/9/3
f 4/14/4 3/13/4 6/12/4
f 5/17/5 4/16/5 6/15/5
f 5/17/5 2/18/5 4/16/5
