# Blender v2.74 (sub 0) OBJ File: 'base_tower.blend'
# www.blender.org
mtllib base_tower.mtl
o Cube
v 1.032781 -0.578035 0.739178
v -0.307174 0.013563 -0.308802
v -0.307174 -0.021094 -0.308802
v 0.309171 0.013563 -0.308802
v 0.309171 -0.021094 -0.308802
v -0.307174 0.013563 0.307543
v -0.307174 -0.021094 0.307543
v 0.309171 0.013563 0.307543
v 0.309171 -0.021094 0.307543
v 0.362673 -0.021094 -0.362394
v 0.362673 0.013563 -0.362394
v 0.309171 -0.021094 -0.362394
v 0.309171 0.013563 -0.362394
v -0.360906 -0.021094 -0.362304
v -0.360906 0.013563 -0.362304
v -0.360906 -0.021094 -0.308802
v -0.360906 0.013563 -0.308802
v 0.309171 0.013563 -0.308802
v 0.309171 0.013563 0.307543
v 0.309171 -0.021094 0.307543
v 0.309171 -0.021094 -0.308802
v 0.362673 0.013563 -0.308802
v 0.362673 0.013563 0.307543
v 0.362673 -0.021094 0.307543
v 0.362673 -0.021094 -0.308802
v 0.309171 0.013563 -0.362304
v 0.309171 -0.021094 -0.362304
v -0.307174 0.013563 -0.362304
v -0.307174 -0.021094 -0.362304
v -0.360676 0.013563 -0.308802
v -0.360676 -0.021094 -0.308802
v -0.360676 0.013563 0.307543
v -0.360676 -0.021094 0.307543
v -0.307174 0.013563 0.361045
v -0.307174 -0.021094 0.361045
v 0.309171 -0.021094 0.361045
v 0.309171 0.013563 0.361045
v 0.363586 -0.021094 0.307543
v 0.363586 0.013563 0.307543
v 0.363586 -0.021094 0.361045
v 0.363586 0.013563 0.361045
v -0.307174 0.013563 0.361942
v -0.307174 -0.021094 0.361942
v -0.360676 0.013563 0.361942
v -0.360676 -0.021094 0.361942
v 0.043961 0.543692 0.193344
v 0.034317 0.543692 0.156480
v -0.052441 0.543692 0.156480
v -0.064486 0.543692 0.193344
v 0.043961 0.543692 -0.175296
v -0.064486 0.543692 -0.175296
v 0.034317 0.543692 -0.138432
v -0.052441 0.543692 -0.138432
v -0.052441 0.380984 -0.138432
v -0.064486 0.380984 -0.175296
v 0.034317 0.380984 -0.138432
v 0.043961 0.380984 -0.175296
v -0.054448 0.229381 0.162624
v -0.054448 0.129381 0.162624
v -0.066996 0.012891 -0.182976
v -0.066996 0.129381 0.201024
v -0.064486 0.229381 0.193344
v -0.052441 0.380984 0.156480
v -0.064486 0.380984 0.193344
v -0.054448 0.129381 -0.144576
v -0.066996 0.012891 0.201024
v -0.064486 0.229381 -0.175296
v -0.052441 0.380984 -0.138432
v -0.064486 0.380984 -0.175296
v -0.066996 0.129381 -0.182976
v -0.054448 0.229381 -0.144576
v 0.035925 0.229381 -0.144576
v 0.035925 0.229381 0.162624
v 0.035925 0.129381 0.162624
v 0.035925 0.129381 -0.144576
v 0.045970 0.012891 0.201024
v 0.045970 0.012891 -0.182976
v 0.045970 0.129381 0.201024
v 0.045970 0.129381 -0.182976
v 0.043961 0.229381 0.193344
v 0.034317 0.380984 0.156480
v 0.043961 0.380984 -0.175296
v 0.043961 0.229381 -0.175296
v 0.043961 0.380984 0.193344
v 0.034317 0.380984 -0.138432
v -0.108547 0.380984 -0.138432
v -0.108547 0.380984 0.156480
v 0.100031 0.380984 0.156480
v 0.100031 0.380984 -0.138432
v -0.134619 0.380984 -0.175296
v -0.134619 0.380984 0.193344
v 0.126103 0.380984 0.193344
v 0.126103 0.380984 -0.175296
v -0.134619 0.229381 -0.175296
v -0.134619 0.229381 0.193344
v 0.126103 0.229381 0.193344
v 0.126103 0.229381 -0.175296
v 0.104376 0.229381 0.162624
v 0.104376 0.229381 -0.144576
v -0.112892 0.229381 -0.144576
v -0.112892 0.229381 0.162624
v -0.112892 0.129381 0.162624
v 0.104376 0.129381 0.162624
v 0.104376 0.129381 -0.144576
v -0.112892 0.129381 -0.144576
v -0.140050 0.129381 -0.182976
v -0.140050 0.012891 -0.182976
v 0.131535 0.129381 -0.182976
v 0.131535 0.012891 -0.182976
v -0.140050 0.129381 0.201024
v -0.140050 0.012891 0.201024
v 0.131535 0.129381 0.201024
v 0.131535 0.012891 0.201024
v 0.188471 0.380984 0.009024
v -0.196577 0.380984 0.009024
v -0.052441 0.380984 0.009024
v -0.066996 0.012891 0.009024
v 0.034317 0.380984 0.009024
v 0.045970 0.012891 0.009024
v 0.100031 0.380984 0.009024
v 0.188471 0.229381 0.009024
v -0.196577 0.229381 0.009024
v -0.108547 0.380984 0.009024
v -0.174851 0.129381 0.009024
v 0.166744 0.229381 0.009024
v -0.202009 0.012891 0.009024
v -0.174851 0.229381 0.009024
v 0.193903 0.129381 0.009024
v 0.193903 0.012891 0.009024
v -0.202009 0.129381 0.009024
v 0.166744 0.129381 0.009024
vn 0.000000 -1.000000 -0.000000
vn 0.000000 0.000000 1.000000
vn 0.000000 1.000000 0.000000
vn 0.000000 0.000000 -1.000000
vn -0.927400 0.000000 0.374100
vn 0.926500 0.000000 -0.376200
vn 0.926500 0.000000 0.376200
vn -0.927400 0.000000 -0.374100
vn -0.950500 0.000000 0.310600
vn 0.967400 0.000000 -0.253100
vn -0.947900 0.000000 0.318600
vn 0.947200 0.000000 -0.320500
vn 0.967400 0.000000 0.253100
vn -0.951700 0.000000 -0.307100
vn 0.951100 0.000000 0.308900
vn -0.950500 0.000000 -0.310600
vn 0.951100 0.000000 -0.308900
vn -0.951700 0.000000 0.307100
vn 0.947200 0.000000 0.320500
vn -0.947900 0.000000 -0.318600
vn -1.000000 0.000000 0.000000
vn 1.000000 0.000000 0.000000
usemtl Material
s off
f 7//1 3//1 5//1 9//1
f 85//2 82//2 57//2 56//2
f 71//1 100//1 94//1 67//1
f 101//1 58//1 62//1 95//1
f 102//2 59//2 58//2 101//2
f 69//2 68//2 54//2 55//2
f 82//2 69//2 55//2 57//2
f 72//1 71//1 67//1 83//1
f 93//3 82//3 85//3 89//3
f 99//1 72//1 83//1 97//1
f 79//3 70//3 65//3 75//3
f 120//3 118//3 81//3 88//3
f 119//1 117//1 60//1 77//1
f 118//3 116//3 63//3 81//3
f 75//4 65//4 71//4 72//4
f 129//1 119//1 77//1 109//1
f 110//3 61//3 59//3 102//3
f 68//2 85//2 56//2 54//2
f 104//4 75//4 72//4 99//4
f 61//3 78//3 74//3 59//3
f 108//3 79//3 75//3 104//3
f 58//1 73//1 80//1 62//1
f 59//2 74//2 73//2 58//2
f 91//3 64//3 63//3 87//3
f 69//3 90//3 86//3 68//3
f 114//3 93//3 89//3 120//3
f 116//3 123//3 87//3 63//3
f 115//3 91//3 87//3 123//3
f 84//3 92//3 88//3 81//3
f 124//5 102//5 101//5 127//5
f 125//1 99//1 97//1 121//1
f 73//1 98//1 96//1 80//1
f 127//1 101//1 95//1 122//1
f 74//2 103//2 98//2 73//2
f 65//4 105//4 100//4 71//4
f 70//3 106//3 105//3 65//3
f 131//6 104//6 99//6 125//6
f 128//3 108//3 104//3 131//3
f 78//3 112//3 103//3 74//3
f 117//1 126//1 107//1 60//1
f 130//3 110//3 102//3 124//3
f 106//3 130//3 124//3 105//3
f 66//1 111//1 126//1 117//1
f 112//3 128//3 131//3 103//3
f 103//7 131//7 125//7 98//7
f 100//1 127//1 122//1 94//1
f 98//1 125//1 121//1 96//1
f 105//8 124//8 127//8 100//8
f 90//3 115//3 123//3 86//3
f 68//3 86//3 123//3 116//3
f 92//3 114//3 120//3 88//3
f 113//1 76//1 119//1 129//1
f 85//3 68//3 116//3 118//3
f 76//1 66//1 117//1 119//1
f 89//3 85//3 118//3 120//3
usemtl Material.002
f 2//3 6//3 8//3 4//3
f 95//2 62//2 64//2 91//2
f 54//2 56//2 52//2 53//2
f 62//2 80//2 84//2 64//2
f 49//3 46//3 47//3 48//3
f 97//4 83//4 82//4 93//4
f 78//2 61//2 66//2 76//2
f 106//4 70//4 60//4 107//4
f 112//2 78//2 76//2 113//2
f 55//9 54//9 53//9 51//9
f 50//3 51//3 53//3 52//3
f 83//4 67//4 69//4 82//4
f 84//10 81//10 47//10 46//10
f 122//11 95//11 91//11 115//11
f 67//4 94//4 90//4 69//4
f 121//12 97//12 93//12 114//12
f 70//4 79//4 77//4 60//4
f 80//2 96//2 92//2 84//2
f 64//2 84//2 46//2 49//2
f 57//4 55//4 51//4 50//4
f 81//4 63//4 48//4 47//4
f 56//13 57//13 50//13 52//13
f 130//14 106//14 107//14 126//14
f 128//15 112//15 113//15 129//15
f 61//2 110//2 111//2 66//2
f 79//4 108//4 109//4 77//4
f 63//16 64//16 49//16 48//16
f 108//17 128//17 129//17 109//17
f 110//18 130//18 126//18 111//18
f 96//19 121//19 114//19 92//19
f 94//20 122//20 115//20 90//20
usemtl Material.004
f 8//2 9//2 20//2 19//2
f 5//1 3//1 29//1 27//1
f 8//3 6//3 34//3 37//3
f 3//1 7//1 33//1 31//1
f 3//2 2//2 17//2 16//2
f 28//4 29//4 14//4 15//4
f 29//1 3//1 16//1 14//1
f 12//4 13//4 11//4 10//4
f 16//21 17//21 15//21 14//21
f 25//1 21//1 12//1 10//1
f 19//2 20//2 24//2 23//2
f 5//2 4//2 18//2 21//2
f 9//2 5//2 21//2 20//2
f 4//2 8//2 19//2 18//2
f 25//22 22//22 23//22 24//22
f 18//3 22//3 11//3 13//3
f 20//1 21//1 25//1 24//1
f 18//3 19//3 23//3 22//3
f 29//4 28//4 26//4 27//4
f 2//3 4//3 26//3 28//3
f 2//3 28//3 15//3 17//3
f 4//22 5//22 27//22 26//22
f 33//21 32//21 30//21 31//21
f 6//3 32//3 44//3 42//3
f 6//3 2//3 30//3 32//3
f 2//4 3//4 31//4 30//4
f 36//2 37//2 34//2 35//2
f 36//1 9//1 38//1 40//1
f 7//1 9//1 36//1 35//1
f 6//21 7//21 35//21 34//21
f 22//22 25//22 10//22 11//22
f 21//21 18//21 13//21 12//21
f 38//22 39//22 41//22 40//22
f 8//3 37//3 41//3 39//3
f 37//2 36//2 40//2 41//2
f 9//4 8//4 39//4 38//4
f 43//2 42//2 44//2 45//2
f 33//1 7//1 43//1 45//1
f 32//21 33//21 45//21 44//21
f 7//22 6//22 42//22 43//22
