# Blender v2.74 (sub 0) OBJ File: 'basic_floor.blend'
# www.blender.org
mtllib basic_floor.mtl
o Cube
v 0.420652 0.371739 -0.053119
v 0.420652 -0.428261 -0.053119
v -0.379348 -0.428261 -0.053119
v -0.379348 0.371739 -0.053119
v 0.420652 0.371739 0.046881
v 0.420652 -0.428261 0.046881
v -0.379348 -0.428261 0.046881
v -0.379348 0.371739 0.046881
v 0.420652 -0.478261 -0.053119
v -0.379348 -0.478261 -0.053119
v 0.420652 -0.478261 0.046881
v -0.379348 -0.478261 0.046881
v 0.420652 -0.528261 -0.053119
v -0.379348 -0.528261 -0.053119
v 0.420652 -0.528261 0.046881
v -0.379348 -0.528261 0.046881
v 0.470652 0.371739 -0.053119
v 0.470652 -0.428261 -0.053119
v 0.470652 0.371739 0.046881
v 0.470652 -0.428261 0.046881
v 0.520652 0.371739 -0.053119
v 0.520652 -0.428261 -0.053119
v 0.520652 0.371739 0.046881
v 0.520652 -0.428261 0.046881
v 0.420652 0.421739 -0.053119
v -0.379348 0.421739 -0.053119
v 0.420652 0.421739 0.046881
v -0.379348 0.421739 0.046881
v 0.420652 0.471739 -0.053119
v -0.379348 0.471739 -0.053119
v 0.420652 0.471739 0.046881
v -0.379348 0.471739 0.046881
v -0.429348 -0.428261 -0.053119
v -0.429348 0.371739 -0.053119
v -0.429348 -0.428261 0.046881
v -0.429348 0.371739 0.046881
v -0.479348 -0.428261 -0.053119
v -0.479348 0.371739 -0.053119
v -0.479348 -0.428261 0.046881
v -0.479348 0.371739 0.046881
v 0.420652 0.421739 -0.053119
v 0.420652 0.421739 0.046881
v 0.470652 0.421739 -0.053119
v 0.470652 0.421739 0.046881
v 0.470652 0.371739 -0.053119
v 0.470652 0.371739 0.046881
v 0.520652 0.371739 -0.053119
v 0.520652 0.371739 0.046881
v 0.470652 0.471739 -0.053119
v 0.470652 0.471739 0.046881
v 0.520652 0.471739 -0.053119
v 0.520652 0.471739 0.046881
v 0.420652 0.471739 -0.053119
v 0.420652 0.471739 0.046881
v 0.470652 0.471739 -0.053119
v 0.470652 0.471739 0.046881
v -0.379348 0.421739 -0.053119
v -0.379348 0.421739 0.046881
v -0.429348 0.421739 -0.053119
v -0.429348 0.421739 0.046881
v -0.379348 0.471739 -0.053119
v -0.379348 0.471739 0.046881
v -0.429348 0.471739 -0.053119
v -0.429348 0.471739 0.046881
v -0.429348 0.471739 -0.053119
v -0.429348 0.471739 0.046881
v -0.479348 0.471739 -0.053119
v -0.479348 0.471739 0.046881
v 0.470652 -0.428261 -0.053119
v 0.470652 -0.428261 0.046881
v 0.470652 -0.478261 -0.053119
v 0.470652 -0.478261 0.046881
v 0.520652 -0.428261 -0.053119
v 0.520652 -0.428261 0.046881
v 0.520652 -0.478261 -0.053119
v 0.520652 -0.478261 0.046881
v 0.520652 -0.478261 -0.053119
v 0.520652 -0.478261 0.046881
v 0.520652 -0.528261 -0.053119
v 0.520652 -0.528261 0.046881
v -0.429348 -0.428261 -0.053119
v -0.429348 -0.428261 0.046881
v -0.429348 -0.478261 -0.053119
v -0.429348 -0.478261 0.046881
v -0.479348 -0.428261 -0.053119
v -0.479348 -0.428261 0.046881
v -0.479348 -0.478261 -0.053119
v -0.479348 -0.478261 0.046881
v -0.479348 -0.478261 -0.053119
v -0.479348 -0.478261 0.046881
v -0.479348 -0.528261 -0.053119
v -0.479348 -0.528261 0.046881
vn 0.000000 -0.000000 -1.000000
vn -0.000000 0.000000 1.000000
vn 0.000000 -1.000000 -0.000000
vn 1.000000 0.000000 -0.000000
vn -1.000000 0.000000 -0.000000
vn 0.000000 1.000000 0.000000
usemtl Material
s off
f 1//1 2//1 3//1 4//1
f 5//2 8//2 7//2 6//2
f 10//1 9//1 13//1 14//1
f 11//2 12//2 16//2 15//2
f 11//2 15//2 80//2 78//2
f 19//2 20//2 24//2 23//2
f 6//3 2//3 18//3 20//3
f 19//4 17//4 43//4 44//4
f 21//2 17//2 45//2 47//2
f 20//3 18//3 22//3 24//3
f 18//1 17//1 21//1 22//1
f 25//1 26//1 30//1 29//1
f 4//5 8//5 28//5 26//5
f 5//4 1//4 25//4 27//4
f 28//2 27//2 31//2 32//2
f 27//4 25//4 29//4 31//4
f 26//5 28//5 32//5 30//5
f 36//4 34//4 65//4 66//4
f 3//3 7//3 35//3 33//3
f 34//1 33//1 37//1 38//1
f 35//2 36//2 40//2 39//2
f 33//3 35//3 39//3 37//3
f 44//4 43//4 55//4 56//4
f 1//5 5//5 42//5 41//5
f 46//2 48//2 52//2 50//2
f 17//2 19//2 46//2 45//2
f 19//2 23//2 48//2 46//2
f 23//2 21//2 47//2 48//2
f 45//5 46//5 50//5 49//5
f 47//1 45//1 49//1 51//1
f 43//1 41//1 53//1 55//1
f 41//5 42//5 54//5 53//5
f 42//2 44//2 56//2 54//2
f 60//2 58//2 62//2 64//2
f 8//4 4//4 57//4 58//4
f 34//5 36//5 60//5 59//5
f 58//4 57//4 61//4 62//4
f 57//1 59//1 63//1 61//1
f 59//5 60//5 64//5 63//5
f 40//2 36//2 66//2 68//2
f 34//1 38//1 67//1 65//1
f 69//6 70//6 74//6 73//6
f 2//6 6//6 70//6 69//6
f 11//3 9//3 71//3 72//3
f 70//2 72//2 76//2 74//2
f 72//3 71//3 75//3 76//3
f 71//1 69//1 73//1 75//1
f 13//1 9//1 77//1 79//1
f 9//6 11//6 78//6 77//6
f 84//2 82//2 86//2 88//2
f 10//3 12//3 84//3 83//3
f 7//6 3//6 81//6 82//6
f 83//3 84//3 88//3 87//3
f 81//1 83//1 87//1 85//1
f 82//6 81//6 85//6 86//6
f 12//6 10//6 89//6 90//6
f 16//2 12//2 90//2 92//2
f 10//1 14//1 91//1 89//1
usemtl Material.001
f 2//1 1//1 17//1 18//1
f 3//1 2//1 9//1 10//1
f 7//2 8//2 36//2 35//2
f 8//2 5//2 27//2 28//2
f 6//2 7//2 12//2 11//2
f 12//2 7//2 82//2 84//2
f 9//1 2//1 69//1 71//1
f 5//2 6//2 20//2 19//2
f 1//1 4//1 26//1 25//1
f 4//1 34//1 59//1 57//1
f 4//1 3//1 33//1 34//1
f 17//1 1//1 41//1 43//1
f 5//2 19//2 44//2 42//2
f 36//2 8//2 58//2 60//2
f 6//2 11//2 72//2 70//2
f 3//1 10//1 83//1 81//1
usemtl Material.002
f 14//3 16//3 92//3 91//3
f 13//3 15//3 16//3 14//3
f 21//4 23//4 24//4 22//4
f 31//6 29//6 30//6 32//6
f 37//5 39//5 40//5 38//5
f 49//6 50//6 52//6 51//6
f 48//4 47//4 51//4 52//4
f 53//6 54//6 56//6 55//6
f 62//6 61//6 63//6 64//6
f 66//6 65//6 67//6 68//6
f 38//5 40//5 68//5 67//5
f 73//4 74//4 76//4 75//4
f 77//4 78//4 80//4 79//4
f 15//3 13//3 79//3 80//3
f 86//5 85//5 87//5 88//5
f 90//5 89//5 91//5 92//5
