# Made using Asset Forge (www.assetforge.io) version 1.3 

mtllib basic_floor.mtl 

g solar_square%_1

v 0.4270787 0.1 -0.5
v 0.4270787 -1.69198E-17 -0.5
v 0.5 0.1 -0.4270787
v 0.5 -1.69198E-17 -0.4270787
v 0.5 -1.69198E-17 0.4270787
v 0.4270787 -1.69198E-17 0.5
v 0.5 0.1 0.4270787
v 0.4270787 0.1 0.5
v -0.4270787 2.819967E-17 -0.5
v -0.4270787 0.1 -0.5
v -0.5 2.819967E-17 -0.4270787
v -0.5 0.1 -0.4270787
v -0.4270787 -1.69198E-17 0.5
v -0.5 -1.69198E-17 0.4270787
v -0.4270787 0.1 0.5
v -0.5 0.1 0.4270787
v -0.4007278 0.1 -0.4007278
v -0.4007278 0.08 -0.4007278
v -0.4007278 0.1 0.4007278
v -0.4007278 0.08 0.4007278
v 0.4007278 0.1 -0.4007278
v 0.4007278 0.1 0.4007278
v 0.4007278 0.08 0.4007278
v 0.4007278 0.08 -0.4007278
vn 0.7071068 0 -0.7071068
vn 0.7071068 0 0.7071068
vn -0.7071068 0 -0.7071068
vn -0.7071068 0 0.7071068
vn 1 0 0
vn 0 -1 0
vn -1 0 0
vn 0 1 0
vn 0 0 -1
vn 0 0 1
vt -0.4270787 0.1
vt -0.4270787 -1.69198E-17
vt -0.5 0.1
vt -0.5 -1.69198E-17
vt 0.5 -1.69198E-17
vt 0.4270787 -1.69198E-17
vt 0.5 0.1
vt 0.4270787 0.1
vt 0.4270787 2.819967E-17
vt 0.5 2.819967E-17
vt -0.5 -0.4270787
vt -0.5 0.4270787
vt -0.4270787 -0.5
vt -0.4270787 0.5
vt 0.4270787 -0.5
vt 0.4270787 0.5
vt 0.5 -0.4270787
vt 0.5 0.4270787
vt -0.4270787 2.819967E-17
vt 0.4007278 0.1
vt 0.4007278 0.08
vt -0.4007278 0.1
vt -0.4007278 0.08
vt -0.4007278 -0.4007278
vt -0.4007278 0.4007278
vt 0.4007278 -0.4007278
vt 0.4007278 0.4007278

usemtl _defaultMat (Instance) (Instance)
usemap _defaultMat (Instance) (Instance)
f 3/3/1 2/2/1 1/1/1
f 2/2/1 3/3/1 4/4/1
f 7/7/2 6/6/2 5/5/2
f 6/6/2 7/7/2 8/8/2
f 11/10/3 10/8/3 9/9/3
f 10/8/3 11/10/3 12/7/3
f 15/1/4 14/4/4 13/2/4
f 14/4/4 15/1/4 16/3/4
f 7/1/5 4/6/5 3/8/5
f 4/6/5 7/1/5 5/2/5
f 6/13/6 4/12/6 5/11/6
f 4/12/6 6/13/6 2/14/6
f 2/14/6 6/13/6 13/15/6
f 2/14/6 13/15/6 9/16/6
f 9/16/6 13/15/6 14/17/6
f 9/16/6 14/17/6 11/18/6
f 14/6/7 12/1/7 11/19/7
f 12/1/7 14/6/7 16/8/7
f 19/22/5 18/21/5 17/20/5
f 18/21/5 19/22/5 20/23/5
f 1/13/8 7/12/8 3/11/8
f 7/12/8 1/13/8 8/14/8
f 8/14/8 1/13/8 21/24/8
f 22/25/8 8/14/8 21/24/8
f 21/24/8 1/13/8 10/15/8
f 21/24/8 10/15/8 17/26/8
f 17/26/8 10/15/8 19/27/8
f 8/14/8 22/25/8 15/16/8
f 15/16/8 22/25/8 19/27/8
f 15/16/8 19/27/8 10/15/8
f 15/16/8 10/15/8 12/17/8
f 15/16/8 12/17/8 16/18/8
f 19/20/9 23/23/9 20/21/9
f 23/23/9 19/20/9 22/22/9
f 8/8/10 13/2/10 6/6/10
f 13/2/10 8/8/10 15/1/10
f 9/9/9 1/1/9 2/2/9
f 1/1/9 9/9/9 10/8/9
f 23/21/7 21/22/7 24/23/7
f 21/22/7 23/21/7 22/20/7
f 21/20/10 18/23/10 24/21/10
f 18/23/10 21/20/10 17/22/10

usemtl satellite (Instance)
usemap satellite (Instance)
f 18/26/8 23/25/8 24/24/8
f 23/25/8 18/26/8 20/27/8
g solar_square%_2


usemtl _defaultMat (Instance) (Instance) (Instance)
usemap _defaultMat (Instance) (Instance) (Instance)
f 3/3/1 2/2/1 1/1/1
f 2/2/1 3/3/1 4/4/1
f 7/7/2 6/6/2 5/5/2
f 6/6/2 7/7/2 8/8/2
f 11/10/3 10/8/3 9/9/3
f 10/8/3 11/10/3 12/7/3
f 15/1/4 14/4/4 13/2/4
f 14/4/4 15/1/4 16/3/4
f 7/1/5 4/6/5 3/8/5
f 4/6/5 7/1/5 5/2/5
f 6/13/6 4/12/6 5/11/6
f 4/12/6 6/13/6 2/14/6
f 2/14/6 6/13/6 13/15/6
f 2/14/6 13/15/6 9/16/6
f 9/16/6 13/15/6 14/17/6
f 9/16/6 14/17/6 11/18/6
f 14/6/7 12/1/7 11/19/7
f 12/1/7 14/6/7 16/8/7
f 19/22/5 18/21/5 17/20/5
f 18/21/5 19/22/5 20/23/5
f 1/13/8 7/12/8 3/11/8
f 7/12/8 1/13/8 8/14/8
f 8/14/8 1/13/8 21/24/8
f 22/25/8 8/14/8 21/24/8
f 21/24/8 1/13/8 10/15/8
f 21/24/8 10/15/8 17/26/8
f 17/26/8 10/15/8 19/27/8
f 8/14/8 22/25/8 15/16/8
f 15/16/8 22/25/8 19/27/8
f 15/16/8 19/27/8 10/15/8
f 15/16/8 10/15/8 12/17/8
f 15/16/8 12/17/8 16/18/8
f 19/20/9 23/23/9 20/21/9
f 23/23/9 19/20/9 22/22/9
f 8/8/10 13/2/10 6/6/10
f 13/2/10 8/8/10 15/1/10
f 9/9/9 1/1/9 2/2/9
f 1/1/9 9/9/9 10/8/9
f 23/21/7 21/22/7 24/23/7
f 21/22/7 23/21/7 22/20/7
f 21/20/10 18/23/10 24/21/10
f 18/23/10 21/20/10 17/22/10

usemtl satellite (Instance) (Instance)
usemap satellite (Instance) (Instance)
f 18/26/8 23/25/8 24/24/8
f 23/25/8 18/26/8 20/27/8
