# Made using Asset Forge (www.assetforge.io) version 1.3 

mtllib basic_floor.mtl 

g floor_0

v -0.528486 0.030698 -0.52357
v -0.5284855 0.030698 0.4235705
v -0.554936 0.030698 0.4235705
v -0.5549365 0.030698 -0.52357
v 0.4237385 0.030698 0.42357
v 0.4237385 0.030698 0.4498795
v -0.5284855 0.030698 0.44988
v 0.423738 0.030698 -0.5235705
v -0.528486 0.030698 -0.5498796
v 0.423738 0.030698 -0.54988
v 0.4501885 0.030698 -0.5235705
v 0.450189 0.030698 0.42357
v 0.423738 -0.030698 -0.5235705
v 0.423738 -0.030698 0.42357
v 0.450189 -0.030698 0.42357
v 0.4501885 -0.030698 -0.5235705
v 0.423738 -0.030698 0.4498795
v 0.450189 -0.030698 0.4498795
v -0.5284855 -0.030698 0.44988
v -0.5284855 -0.030698 0.4235705
v -0.5549365 -0.030698 0.4235705
v -0.5549365 -0.030698 0.44988
v -0.5549365 -0.030698 -0.5235705
v -0.5284855 -0.030698 -0.5235705
v -0.5284855 -0.030698 -0.54988
v -0.5549365 -0.030698 -0.54988
v 0.423738 -0.030698 -0.54988
v 0.4501885 -0.030698 -0.54988
v -0.554936 0.030698 0.44988
v 0.450189 0.030698 0.4498795
v 0.4501885 0.030698 -0.54988
v -0.5549365 0.030698 -0.5498796
vn 0 1 0
vn 0 0 0.5
vn 0.5 0 0
vn 0 0 -0.5
vn 0 -1 0
vn -0.5 0 0
vt 0.528486 -0.52357
vt 0.5284855 0.4235705
vt 0.554936 0.4235705
vt 0.5549365 -0.52357
vt -0.4237385 0.42357
vt -0.4237385 0.4498795
vt 0.5284855 0.44988
vt 0.4237385 0.030698
vt 0.423738 0.030698
vt -0.423738 -0.5235705
vt 0.528486 -0.5498796
vt -0.423738 -0.54988
vt -0.4501885 -0.5235705
vt -0.450189 0.42357
vt 0.423738 -0.030698
vt -0.42357 -0.030698
vt -0.42357 0.030698
vt 0.5235705 0.030698
vt 0.5235705 -0.030698
vt -0.423738 0.030698
vt -0.423738 -0.030698
vt -0.4501885 -0.030698
vt -0.4501885 0.030698
vt -0.450189 -0.42357
vt -0.423738 -0.42357
vt -0.423738 -0.4498795
vt -0.450189 -0.4498795
vt -0.423738 0.5235705
vt -0.4501885 0.5235705
vt -0.5284855 -0.030698
vt -0.5284855 0.030698
vt -0.4498795 -0.030698
vt -0.4498795 0.030698
vt 0.5284855 -0.44988
vt 0.5284855 -0.4235705
vt 0.5549365 -0.4235705
vt 0.5549365 -0.44988
vt -0.5235705 -0.030698
vt -0.52357 0.030698
vt 0.4235705 0.030698
vt 0.4235705 -0.030698
vt -0.5549365 -0.030698
vt -0.554936 0.030698
vt 0.5549365 0.5235705
vt 0.5284855 0.5235705
vt 0.5284855 0.54988
vt 0.5549365 0.54988
vt 0.528486 0.030698
vt 0.5284855 -0.030698
vt -0.423738 0.54988
vt -0.4501885 0.54988
vt -0.54988 -0.030698
vt -0.5498796 0.030698
vt 0.44988 0.030698
vt 0.44988 -0.030698
vt 0.554936 0.44988
vt 0.5284855 0.030698
vt 0.554936 0.030698
vt 0.5549365 -0.030698
vt 0.450189 0.030698
vt 0.450189 -0.030698
vt -0.450189 0.4498795
vt 0.42357 -0.030698
vt 0.42357 0.030698
vt 0.4498795 0.030698
vt 0.4498795 -0.030698
vt 0.54988 0.030698
vt 0.54988 -0.030698
vt -0.4501885 -0.54988
vt 0.4501885 0.030698
vt 0.4501885 -0.030698
vt 0.5549365 0.030698
vt 0.5549365 -0.5498796
vt 0.52357 0.030698
vt 0.5498796 0.030698

usemtl Material (Instance)
usemap Material (Instance)
f 3/3/1 2/2/1 1/1/1
f 1/1/1 4/4/1 3/3/1
f 6/6/1 5/5/1 2/2/1
f 2/2/1 7/7/1 6/6/1
f 8/9/2 8/9/2 5/8/2
f 5/8/2 5/8/2 8/9/2
f 9/11/1 1/1/1 8/10/1
f 8/10/1 10/12/1 9/11/1
f 11/13/1 8/10/1 5/5/1
f 5/5/1 12/14/1 11/13/1
f 13/15/2 13/15/2 8/9/2
f 8/9/2 8/9/2 13/15/2
f 5/8/2 5/8/2 14/15/2
f 14/15/2 14/15/2 5/8/2
f 14/15/2 14/15/2 13/15/2
f 13/15/2 13/15/2 14/15/2
f 11/18/3 12/17/3 15/16/3
f 15/16/3 16/19/3 11/18/3
f 16/22/4 13/21/4 8/20/4
f 8/20/4 11/23/4 16/22/4
f 17/26/5 14/25/5 15/24/5
f 15/24/5 18/27/5 17/26/5
f 15/24/5 14/25/5 13/28/5
f 13/28/5 16/29/5 15/24/5
f 6/8/2 7/31/2 19/30/2
f 19/30/2 17/15/2 6/8/2
f 17/32/3 14/16/3 5/17/3
f 5/17/3 6/33/3 17/32/3
f 21/36/5 20/35/5 19/34/5
f 19/34/5 22/37/5 21/36/5
f 19/34/5 20/35/5 14/25/5
f 14/25/5 17/26/5 19/34/5
f 3/40/6 4/39/6 23/38/6
f 23/38/6 21/41/6 3/40/6
f 21/42/2 20/30/2 2/31/2
f 2/31/2 3/43/2 21/42/2
f 25/46/5 24/45/5 23/44/5
f 23/44/5 26/47/5 25/46/5
f 23/44/5 24/45/5 20/35/5
f 20/35/5 21/36/5 23/44/5
f 27/21/4 25/49/4 9/48/4
f 9/48/4 10/20/4 27/21/4
f 16/29/5 13/28/5 27/50/5
f 27/50/5 28/51/5 16/29/5
f 25/52/6 24/38/6 1/39/6
f 1/39/6 9/53/6 25/52/6
f 27/50/5 13/28/5 24/45/5
f 24/45/5 25/46/5 27/50/5
f 29/54/6 3/40/6 21/41/6
f 21/41/6 22/55/6 29/54/6
f 29/56/1 7/7/1 2/2/1
f 2/2/1 3/3/1 29/56/1
f 22/42/2 19/30/2 7/31/2
f 7/31/2 29/43/2 22/42/2
f 3/58/4 2/57/4 20/49/4
f 20/49/4 21/59/4 3/58/4
f 30/60/2 6/8/2 17/15/2
f 17/15/2 18/61/2 30/60/2
f 30/62/1 12/14/1 5/5/1
f 5/5/1 6/6/1 30/62/1
f 18/32/3 15/16/3 12/17/3
f 12/17/3 30/33/3 18/32/3
f 6/65/6 5/64/6 14/63/6
f 14/63/6 17/66/6 6/65/6
f 31/67/3 11/18/3 16/19/3
f 16/19/3 28/68/3 31/67/3
f 31/69/1 10/12/1 8/10/1
f 8/10/1 11/13/1 31/69/1
f 28/22/4 27/21/4 10/20/4
f 10/20/4 31/23/4 28/22/4
f 11/70/2 8/9/2 13/15/2
f 13/15/2 16/71/2 11/70/2
f 32/72/4 9/48/4 25/49/4
f 25/49/4 26/59/4 32/72/4
f 32/73/1 4/4/1 1/1/1
f 1/1/1 9/11/1 32/73/1
f 26/52/6 23/38/6 4/39/6
f 4/39/6 32/53/6 26/52/6
f 9/75/3 1/74/3 24/19/3
f 24/19/3 25/68/3 9/75/3

usemtl Material.001 (Instance)
usemap Material.001 (Instance)
f 14/25/5 20/35/5 24/45/5
f 24/45/5 13/28/5 14/25/5
f 5/5/1 8/10/1 1/1/1
f 1/1/1 2/2/1 5/5/1
