# Blender v2.74 (sub 0) OBJ File: 'bomber.blend'
# www.blender.org
mtllib bomber.mtl
o Cube
v -0.738498 -0.578035 1.029462
v 0.323269 0.338826 -0.023310
v 0.231227 0.338826 -0.023310
v 0.231227 0.305202 -0.104487
v 0.323269 0.305202 -0.104487
v 0.231227 0.224026 -0.138111
v 0.323269 0.224026 -0.138111
v 0.231227 0.142849 -0.104487
v 0.323269 0.142849 -0.104487
v 0.231227 0.109225 -0.023310
v 0.323269 0.109225 -0.023310
v 0.231227 0.142849 0.057866
v 0.323269 0.142849 0.057866
v 0.231227 0.224026 0.091490
v 0.323269 0.224026 0.091490
v 0.231227 0.305202 0.057866
v 0.323269 0.305202 0.057866
v 0.326100 0.160286 0.035402
v 0.326100 0.133348 -0.029633
v 0.326100 0.225320 -0.121605
v 0.326100 0.290355 -0.094667
v 0.326100 0.160286 -0.094667
v 0.326100 0.317293 -0.029633
v 0.326100 0.225320 0.062339
v 0.326100 0.290355 0.035402
v 0.251321 0.160286 0.035402
v 0.251321 0.133348 -0.029633
v 0.251321 0.225320 -0.121605
v 0.251321 0.290355 -0.094667
v 0.251321 0.160286 -0.094667
v 0.251321 0.317293 -0.029633
v 0.251321 0.225320 0.062339
v 0.251321 0.290355 0.035402
v 0.231837 0.224026 -0.097751
v 0.231837 0.171388 -0.075948
v 0.231837 0.149585 -0.023310
v 0.231837 0.171388 0.029327
v 0.231837 0.276663 -0.075948
v 0.231837 0.298466 -0.023310
v 0.231837 0.224026 0.051130
v 0.231837 0.276663 0.029327
v 0.083078 0.224026 -0.097751
v 0.083078 0.171388 -0.075947
v 0.083078 0.149585 -0.023310
v 0.083078 0.171388 0.029327
v 0.083078 0.276663 -0.075947
v 0.083078 0.298466 -0.023310
v 0.083078 0.224026 0.051130
v 0.083078 0.276663 0.029327
v -0.192571 0.021948 0.201111
v -0.192571 0.421948 0.063900
v -0.192571 0.021948 -0.242983
v -0.192571 0.421948 -0.131105
v 0.044899 0.021948 0.201111
v 0.044899 0.421948 0.063900
v 0.044899 0.021948 -0.242983
v 0.044899 0.421948 -0.131105
v -0.292571 0.124592 0.203052
v -0.292571 0.124592 -0.242712
v 0.044899 0.124592 -0.242712
v 0.044899 0.124592 0.203052
v -0.292571 0.336340 0.167121
v -0.292571 0.336340 -0.209260
v 0.044899 0.336340 -0.209260
v 0.044899 0.336340 0.167121
v -0.325237 0.230466 -0.245693
v 0.077565 0.230466 -0.245693
v 0.077565 0.230466 0.203554
v -0.325237 0.230466 0.203554
v -0.170143 0.423277 0.066690
v -0.170143 0.461880 0.066690
v -0.170143 0.423277 -0.053919
v -0.170143 0.461880 -0.053919
v -0.049534 0.423277 0.066690
v -0.049534 0.461880 0.066690
v -0.049534 0.423277 -0.053919
v -0.049534 0.461880 -0.053919
v 0.262425 0.013563 -0.310493
v 0.262425 -0.021094 -0.310493
v 0.262425 0.013563 0.305852
v 0.262425 -0.021094 0.305852
v -0.353920 0.013563 -0.310493
v -0.353920 -0.021094 -0.310493
v -0.353920 0.013563 0.305852
v -0.353920 -0.021094 0.305852
v -0.023228 0.230555 -0.287703
v -0.023228 0.012855 -0.287703
v -0.023228 0.230555 -0.244273
v -0.023228 0.012855 -0.244273
v -0.223228 0.230555 -0.287703
v -0.223228 0.012855 -0.287703
v -0.223228 0.230555 -0.244273
v -0.223228 0.012855 -0.244273
v 0.316016 -0.021094 0.359354
v 0.316016 0.013563 0.359354
v 0.316016 -0.021094 0.305852
v 0.316016 0.013563 0.305852
v 0.315927 -0.021094 -0.364225
v 0.315927 0.013563 -0.364225
v 0.262425 -0.021094 -0.364225
v 0.262425 0.013563 -0.364225
v 0.262425 0.013563 0.305852
v -0.353920 0.013563 0.305852
v -0.353920 -0.021094 0.305852
v 0.262425 -0.021094 0.305852
v 0.262425 0.013563 0.359354
v -0.353920 0.013563 0.359354
v -0.353920 -0.021094 0.359354
v 0.262425 -0.021094 0.359354
v 0.315927 0.013563 0.305852
v 0.315927 -0.021094 0.305852
v 0.315927 0.013563 -0.310493
v 0.315927 -0.021094 -0.310493
v 0.262425 0.013563 -0.363995
v 0.262425 -0.021094 -0.363995
v -0.353920 0.013563 -0.363995
v -0.353920 -0.021094 -0.363995
v -0.407422 0.013563 -0.310493
v -0.407422 -0.021094 -0.310493
v -0.407422 -0.021094 0.305852
v -0.407422 0.013563 0.305852
v -0.353920 -0.021094 0.360266
v -0.353920 0.013563 0.360266
v -0.407422 -0.021094 0.360266
v -0.407422 0.013563 0.360266
v -0.408319 0.013563 -0.310493
v -0.408319 -0.021094 -0.310493
v -0.408319 0.013563 -0.363995
v -0.408319 -0.021094 -0.363995
v -0.315861 0.290710 0.193096
v -0.315861 0.290710 -0.235235
v 0.068188 0.290710 -0.235235
v 0.068188 0.290710 0.193096
v -0.315861 0.170222 -0.245834
v 0.068188 0.170222 -0.245834
v 0.068188 0.170222 0.203837
v -0.315861 0.170222 0.203837
v -0.023228 0.230555 0.200177
v -0.023228 0.012855 0.200177
v -0.023228 0.230555 0.246139
v -0.023228 0.012855 0.246139
v -0.223228 0.230555 0.200177
v -0.223228 0.012855 0.200177
v -0.223228 0.230555 0.246139
v -0.223228 0.012855 0.246139
vn 0.000000 1.000000 0.000000
vn 0.000000 -1.000000 0.000000
vn 0.992000 0.116300 0.048200
vn 0.000000 -0.382700 0.923900
vn 0.000000 -0.923900 0.382700
vn -0.000000 -0.923900 -0.382700
vn -0.000000 -0.382700 -0.923900
vn 0.000000 0.923900 0.382700
vn -0.000000 0.382700 -0.923900
vn -0.000000 0.923900 -0.382700
vn 0.000000 0.382700 0.923900
vn 0.994300 0.040700 0.098400
vn 0.994700 -0.039300 0.094900
vn 0.984200 -0.067700 -0.163500
vn 0.987100 0.147700 -0.061200
vn 0.990000 -0.130300 -0.054000
vn 0.982100 0.072100 -0.174100
vn 0.993500 -0.105200 0.043600
vn -0.716300 -0.697800 0.000000
vn 0.000000 0.002600 -1.000000
vn 1.000000 0.000000 0.000000
vn 0.000000 -0.018900 0.999800
vn 0.000000 -0.017200 0.999900
vn 0.890700 -0.454600 0.000000
vn 0.000000 -0.068300 -0.997700
vn -0.890700 -0.454600 0.000000
vn -0.650300 0.759700 0.000000
vn 0.000000 0.674200 -0.738500
vn 0.000000 0.769700 0.638400
vn -0.988100 -0.153800 0.000000
vn 0.000000 0.002300 -1.000000
vn 0.988100 -0.153800 0.000000
vn 0.000000 0.004700 1.000000
vn -0.999900 -0.015100 -0.006300
vn -0.999900 -0.006300 -0.015100
vn -0.999900 0.006300 -0.015100
vn -0.999900 -0.015100 0.006300
vn -0.999900 0.015100 0.006300
vn -0.999900 -0.006300 0.015100
vn -0.999900 0.015100 -0.006300
vn -0.999900 0.006300 0.015100
vn -1.000000 0.000000 0.000000
vn -0.988100 0.153800 0.000000
vn 0.000000 0.171000 -0.985300
vn 0.988100 0.153800 0.000000
vn 0.000000 0.171000 0.985300
vn 0.000000 0.000000 -1.000000
vn 0.000000 0.000000 1.000000
vn 0.000000 0.494700 0.869100
vn 0.890700 0.454600 0.000000
vn 0.000000 0.494700 -0.869100
vn -0.890700 0.454600 0.000000
usemtl Material
s off
f 78//1 82//1 84//1 80//1
f 83//2 79//2 81//2 85//2
usemtl Material.001
f 2//3 17//3 25//3 23//3
f 12//4 13//4 15//4 14//4
f 10//5 11//5 13//5 12//5
f 8//6 9//6 11//6 10//6
f 6//7 7//7 9//7 8//7
f 16//8 17//8 2//8 3//8
f 4//9 5//9 7//9 6//9
f 3//10 2//10 5//10 4//10
f 14//11 15//11 17//11 16//11
f 17//12 15//12 24//12 25//12
f 15//13 13//13 18//13 24//13
f 9//14 7//14 20//14 22//14
f 5//15 2//15 23//15 21//15
f 11//16 9//16 22//16 19//16
f 7//17 5//17 21//17 20//17
f 13//18 11//18 19//18 18//18
f 58//19 59//19 52//19 50//19
f 59//20 60//20 56//20 52//20
f 60//21 61//21 54//21 56//21
f 61//22 58//22 50//22 54//22
f 50//2 52//2 56//2 54//2
f 55//1 57//1 53//1 51//1
f 136//23 137//23 58//23 61//23
f 135//24 136//24 61//24 60//24
f 134//25 135//25 60//25 59//25
f 137//26 134//26 59//26 58//26
f 51//27 53//27 63//27 62//27
f 53//28 57//28 64//28 63//28
f 57//21 55//21 65//21 64//21
f 55//29 51//29 62//29 65//29
f 69//30 66//30 134//30 137//30
f 66//31 67//31 135//31 134//31
f 67//32 68//32 136//32 135//32
f 68//33 69//33 137//33 136//33
usemtl Material.002
f 23//6 25//6 33//6 31//6
f 29//21 31//21 33//21 32//21 26//21 27//21 30//21 28//21
f 25//7 24//7 32//7 33//7
f 24//9 18//9 26//9 32//9
f 22//11 20//11 28//11 30//11
f 21//5 23//5 31//5 29//5
f 19//8 22//8 30//8 27//8
f 20//4 21//4 29//4 28//4
f 18//10 19//10 27//10 26//10
f 41//8 39//8 47//8 49//8
f 40//11 41//11 49//11 48//11
f 37//4 40//4 48//4 45//4
f 39//10 38//10 46//10 47//10
f 35//6 36//6 44//6 43//6
f 38//9 34//9 42//9 46//9
f 36//5 37//5 45//5 44//5
f 34//7 35//7 43//7 42//7
usemtl Material.004
f 16//34 3//34 39//34 41//34
f 14//35 16//35 41//35 40//35
f 12//36 14//36 40//36 37//36
f 3//37 4//37 38//37 39//37
f 8//38 10//38 36//38 35//38
f 4//39 6//39 34//39 38//39
f 10//40 12//40 37//40 36//40
f 6//41 8//41 35//41 34//41
f 47//42 46//42 42//42 43//42 44//42 45//42 48//42 49//42
f 130//43 131//43 66//43 69//43
f 131//44 132//44 67//44 66//44
f 132//45 133//45 68//45 67//45
f 133//46 130//46 69//46 68//46
f 71//42 73//42 72//42 70//42
f 73//47 77//47 76//47 72//47
f 77//21 75//21 74//21 76//21
f 75//48 71//48 70//48 74//48
f 70//2 72//2 76//2 74//2
f 75//1 77//1 73//1 71//1
f 84//48 85//48 104//48 103//48
f 81//2 79//2 113//2 111//2
f 84//1 82//1 118//1 121//1
f 79//2 83//2 117//2 115//2
f 86//21 88//21 89//21 87//21
f 88//1 86//1 90//1 92//1
f 90//47 86//47 87//47 91//47
f 88//48 92//48 93//48 89//48
f 92//42 90//42 91//42 93//42
f 93//2 91//2 87//2 89//2
f 79//42 78//42 101//42 100//42
f 112//21 113//21 98//21 99//21
f 113//2 79//2 100//2 98//2
f 96//21 97//21 95//21 94//21
f 100//47 101//47 99//47 98//47
f 109//2 105//2 96//2 94//2
f 103//42 104//42 108//42 107//42
f 81//48 80//48 102//48 105//48
f 85//48 81//48 105//48 104//48
f 80//48 84//48 103//48 102//48
f 109//48 106//48 107//48 108//48
f 102//1 106//1 95//1 97//1
f 104//2 105//2 109//2 108//2
f 102//1 103//1 107//1 106//1
f 113//21 112//21 110//21 111//21
f 78//1 80//1 110//1 112//1
f 78//1 112//1 99//1 101//1
f 80//48 81//48 111//48 110//48
f 117//47 116//47 114//47 115//47
f 82//1 116//1 128//1 126//1
f 82//1 78//1 114//1 116//1
f 78//21 79//21 115//21 114//21
f 120//42 121//42 118//42 119//42
f 120//2 85//2 122//2 124//2
f 83//2 85//2 120//2 119//2
f 82//47 83//47 119//47 118//47
f 106//48 109//48 94//48 95//48
f 105//47 102//47 97//47 96//47
f 122//48 123//48 125//48 124//48
f 84//1 121//1 125//1 123//1
f 121//42 120//42 124//42 125//42
f 85//21 84//21 123//21 122//21
f 127//42 126//42 128//42 129//42
f 117//2 83//2 127//2 129//2
f 116//47 117//47 129//47 128//47
f 83//48 82//48 126//48 127//48
f 65//49 62//49 130//49 133//49
f 64//50 65//50 133//50 132//50
f 63//51 64//51 132//51 131//51
f 62//52 63//52 131//52 130//52
f 138//21 140//21 141//21 139//21
f 140//1 138//1 142//1 144//1
f 142//47 138//47 139//47 143//47
f 140//48 144//48 145//48 141//48
f 144//42 142//42 143//42 145//42
f 145//2 143//2 139//2 141//2
