# Blender v2.79 (sub 0) OBJ File: 'bomber.blend'
# www.blender.org
mtllib bomber.mtl
o Cube
v -0.738498 -0.578035 1.029462
v -0.192571 0.021948 0.201111
v -0.192571 0.421948 0.063900
v -0.192571 0.021948 -0.242983
v -0.192571 0.421948 -0.131105
v 0.079829 0.021948 0.201111
v 0.059444 0.421948 0.063900
v 0.079829 0.021948 -0.242983
v 0.059444 0.421948 -0.131105
v -0.292571 0.124592 0.203052
v -0.292571 0.124592 -0.242712
v 0.078471 0.124592 -0.242712
v 0.078471 0.124592 0.203052
v -0.292571 0.336340 0.167121
v -0.292571 0.336340 -0.209260
v 0.072141 0.336340 -0.209260
v 0.072141 0.336340 0.167121
v -0.325237 0.230466 -0.245693
v 0.077565 0.230466 -0.245693
v 0.077565 0.230466 0.203554
v -0.325237 0.230466 0.203554
v -0.170143 0.423277 0.066690
v -0.170143 0.461880 0.066690
v -0.170143 0.423277 -0.053919
v -0.170143 0.461880 -0.053919
v -0.049534 0.423277 0.066690
v -0.049534 0.461880 0.066690
v -0.049534 0.423277 -0.053919
v -0.049534 0.461880 -0.053919
v 0.262425 0.013563 -0.310493
v 0.262425 -0.021094 -0.310493
v 0.262425 0.013563 0.305852
v 0.262425 -0.021094 0.305852
v -0.353920 0.013563 -0.310493
v -0.353920 -0.021094 -0.310493
v -0.353920 0.013563 0.305852
v -0.353920 -0.021094 0.305852
v -0.023228 0.230555 -0.287703
v -0.023228 0.012855 -0.287703
v -0.023228 0.230555 -0.244273
v -0.023228 0.012855 -0.244273
v -0.223228 0.230555 -0.287703
v -0.223228 0.012855 -0.287703
v -0.223228 0.230555 -0.244273
v -0.223228 0.012855 -0.244273
v 0.316016 -0.021094 0.359354
v 0.316016 0.013563 0.359354
v 0.316016 -0.021094 0.305852
v 0.316016 0.013563 0.305852
v 0.315927 -0.021094 -0.364225
v 0.315927 0.013563 -0.364225
v 0.262425 -0.021094 -0.364225
v 0.262425 0.013563 -0.364225
v 0.262425 0.013563 0.305852
v -0.353920 0.013563 0.305852
v -0.353920 -0.021094 0.305852
v 0.262425 -0.021094 0.305852
v 0.262425 0.013563 0.359354
v -0.353920 0.013563 0.359354
v -0.353920 -0.021094 0.359354
v 0.262425 -0.021094 0.359354
v 0.315927 0.013563 0.305852
v 0.315927 -0.021094 0.305852
v 0.315927 0.013563 -0.310493
v 0.315927 -0.021094 -0.310493
v 0.262425 0.013563 -0.363995
v 0.262425 -0.021094 -0.363995
v -0.353920 0.013563 -0.363995
v -0.353920 -0.021094 -0.363995
v -0.407422 0.013563 -0.310493
v -0.407422 -0.021094 -0.310493
v -0.407422 -0.021094 0.305852
v -0.407422 0.013563 0.305852
v -0.353920 -0.021094 0.360266
v -0.353920 0.013563 0.360266
v -0.407422 -0.021094 0.360266
v -0.407422 0.013563 0.360266
v -0.408319 0.013563 -0.310493
v -0.408319 -0.021094 -0.310493
v -0.408319 0.013563 -0.363995
v -0.408319 -0.021094 -0.363995
v -0.315861 0.290710 0.193096
v -0.315861 0.290710 -0.235235
v 0.074902 0.290710 -0.235235
v 0.074902 0.290710 0.193096
v -0.315861 0.170222 -0.245834
v 0.078132 0.170222 -0.245834
v 0.078132 0.170222 0.203837
v -0.315861 0.170222 0.203837
v -0.023228 0.230555 0.200177
v -0.023228 0.012855 0.200177
v -0.023228 0.230555 0.246139
v -0.023228 0.012855 0.246139
v -0.223228 0.230555 0.200177
v -0.223228 0.012855 0.200177
v -0.223228 0.230555 0.246139
v -0.223228 0.012855 0.246139
vn 0.0000 1.0000 0.0000
vn 0.0000 -1.0000 0.0000
vn -0.7163 -0.6978 0.0000
vn 0.0000 0.0026 -1.0000
vn 0.9999 0.0132 0.0000
vn 0.0000 -0.0189 0.9998
vn 0.0000 -0.0172 0.9999
vn 1.0000 0.0074 0.0000
vn 0.0000 -0.0683 -0.9977
vn -0.8907 -0.4546 0.0000
vn -0.6503 0.7597 0.0000
vn 0.0000 0.6742 -0.7385
vn 0.9892 0.1467 0.0000
vn 0.0000 0.7697 0.6384
vn -0.9881 -0.1538 0.0000
vn 0.0000 0.0023 -1.0000
vn 1.0000 0.0094 0.0000
vn 0.0000 0.0047 1.0000
vn -0.9881 0.1538 0.0000
vn 0.0000 0.1710 -0.9853
vn 0.9990 0.0442 0.0000
vn 0.0000 0.1710 0.9853
vn -1.0000 0.0000 0.0000
vn 0.0000 0.0000 -1.0000
vn 1.0000 0.0000 0.0000
vn 0.0000 0.0000 1.0000
vn 0.0000 0.4947 0.8691
vn 0.9982 0.0604 0.0000
vn 0.0000 0.4947 -0.8691
vn -0.8907 0.4546 0.0000
usemtl Material
s off
f 30//1 34//1 36//1 32//1
f 35//2 31//2 33//2 37//2
usemtl Material.001
f 10//3 11//3 4//3 2//3
f 11//4 12//4 8//4 4//4
f 12//5 13//5 6//5 8//5
f 13//6 10//6 2//6 6//6
f 2//2 4//2 8//2 6//2
f 7//1 9//1 5//1 3//1
f 88//7 89//7 10//7 13//7
f 87//8 88//8 13//8 12//8
f 86//9 87//9 12//9 11//9
f 89//10 86//10 11//10 10//10
f 3//11 5//11 15//11 14//11
f 5//12 9//12 16//12 15//12
f 9//13 7//13 17//13 16//13
f 7//14 3//14 14//14 17//14
f 21//15 18//15 86//15 89//15
f 18//16 19//16 87//16 86//16
f 19//17 20//17 88//17 87//17
f 20//18 21//18 89//18 88//18
usemtl Material.004
f 82//19 83//19 18//19 21//19
f 83//20 84//20 19//20 18//20
f 84//21 85//21 20//21 19//21
f 85//22 82//22 21//22 20//22
f 23//23 25//23 24//23 22//23
f 25//24 29//24 28//24 24//24
f 29//25 27//25 26//25 28//25
f 27//26 23//26 22//26 26//26
f 22//2 24//2 28//2 26//2
f 27//1 29//1 25//1 23//1
f 36//26 37//26 56//26 55//26
f 33//2 31//2 65//2 63//2
f 36//1 34//1 70//1 73//1
f 31//2 35//2 69//2 67//2
f 38//25 40//25 41//25 39//25
f 40//1 38//1 42//1 44//1
f 42//24 38//24 39//24 43//24
f 40//26 44//26 45//26 41//26
f 44//23 42//23 43//23 45//23
f 45//2 43//2 39//2 41//2
f 31//23 30//23 53//23 52//23
f 64//25 65//25 50//25 51//25
f 65//2 31//2 52//2 50//2
f 48//25 49//25 47//25 46//25
f 52//24 53//24 51//24 50//24
f 61//2 57//2 48//2 46//2
f 55//23 56//23 60//23 59//23
f 33//26 32//26 54//26 57//26
f 37//26 33//26 57//26 56//26
f 32//26 36//26 55//26 54//26
f 61//26 58//26 59//26 60//26
f 54//1 58//1 47//1 49//1
f 56//2 57//2 61//2 60//2
f 54//1 55//1 59//1 58//1
f 65//25 64//25 62//25 63//25
f 30//1 32//1 62//1 64//1
f 30//1 64//1 51//1 53//1
f 32//26 33//26 63//26 62//26
f 69//24 68//24 66//24 67//24
f 34//1 68//1 80//1 78//1
f 34//1 30//1 66//1 68//1
f 30//25 31//25 67//25 66//25
f 72//23 73//23 70//23 71//23
f 72//2 37//2 74//2 76//2
f 35//2 37//2 72//2 71//2
f 34//24 35//24 71//24 70//24
f 58//26 61//26 46//26 47//26
f 57//24 54//24 49//24 48//24
f 74//26 75//26 77//26 76//26
f 36//1 73//1 77//1 75//1
f 73//23 72//23 76//23 77//23
f 37//25 36//25 75//25 74//25
f 79//23 78//23 80//23 81//23
f 69//2 35//2 79//2 81//2
f 68//24 69//24 81//24 80//24
f 35//26 34//26 78//26 79//26
f 17//27 14//27 82//27 85//27
f 16//28 17//28 85//28 84//28
f 15//29 16//29 84//29 83//29
f 14//30 15//30 83//30 82//30
f 90//25 92//25 93//25 91//25
f 92//1 90//1 94//1 96//1
f 94//24 90//24 91//24 95//24
f 92//26 96//26 97//26 93//26
f 96//23 94//23 95//23 97//23
f 97//2 95//2 91//2 93//2
