# Blender v2.74 (sub 0) OBJ File: 'border.blend'
# www.blender.org
mtllib border.mtl
o Circle
v -1.250000 -0.248371 0.000000
v -1.245196 0.297969 0.000000
v -1.239306 -0.248371 0.163158
v -1.234544 0.297969 0.162531
v -1.207407 -0.248371 0.323524
v -1.202767 0.297969 0.322280
v -1.154850 -0.248371 0.478354
v -1.150411 0.297969 0.476516
v -1.082532 -0.248371 0.625000
v -1.078372 0.297969 0.622598
v -0.991692 -0.248371 0.760952
v -0.987881 0.297969 0.758027
v -0.883883 -0.248371 0.883884
v -0.880487 0.297969 0.880487
v -0.760952 -0.248371 0.991691
v -0.758028 0.297969 0.987880
v -0.625000 -0.248371 1.082532
v -0.622598 0.297969 1.078372
v -0.478355 -0.248371 1.154849
v -0.476516 0.297969 1.150411
v -0.323524 -0.248371 1.207407
v -0.322280 0.297969 1.202767
v -0.163158 -0.248371 1.239306
v -0.162531 0.297969 1.234544
v -0.000000 -0.248371 1.250000
v -0.000000 0.297969 1.245196
v 0.163158 -0.248371 1.239306
v 0.162531 0.297969 1.234544
v 0.323524 -0.248371 1.207407
v 0.322280 0.297969 1.202767
v 0.478354 -0.248371 1.154849
v 0.476516 0.297969 1.150411
v 0.625000 -0.248371 1.082532
v 0.622598 0.297969 1.078372
v 0.760952 -0.248371 0.991692
v 0.758028 0.297969 0.987881
v 0.883884 -0.248371 0.883883
v 0.880487 0.297969 0.880486
v 0.991692 -0.248371 0.760952
v 0.987881 0.297969 0.758027
v 1.082532 -0.248371 0.625000
v 1.078372 0.297969 0.622598
v 1.154849 -0.248371 0.478354
v 1.150411 0.297969 0.476516
v 1.207407 -0.248371 0.323524
v 1.202767 0.297969 0.322280
v 1.239306 -0.248371 0.163158
v 1.234544 0.297969 0.162531
v 1.250000 -0.248371 0.000000
v 1.245196 0.297969 0.000000
v 1.239306 -0.248371 -0.163158
v 1.234544 0.297969 -0.162531
v 1.207407 -0.248371 -0.323524
v 1.202767 0.297969 -0.322280
v 1.154850 -0.248371 -0.478354
v 1.150412 0.297969 -0.476516
v 1.082532 -0.248371 -0.625000
v 1.078372 0.297969 -0.622598
v 0.991692 -0.248371 -0.760952
v 0.987881 0.297969 -0.758028
v 0.883884 -0.248371 -0.883883
v 0.880487 0.297969 -0.880487
v 0.760952 -0.248371 -0.991691
v 0.758028 0.297969 -0.987880
v 0.625000 -0.248371 -1.082532
v 0.622598 0.297969 -1.078372
v 0.478354 -0.248371 -1.154849
v 0.476516 0.297969 -1.150411
v 0.323524 -0.248371 -1.207407
v 0.322281 0.297969 -1.202767
v 0.163159 -0.248371 -1.239306
v 0.162531 0.297969 -1.234543
v -0.000000 -0.248371 -1.250000
v -0.000000 0.297969 -1.245196
v -0.163158 -0.248371 -1.239306
v -0.162531 0.297969 -1.234544
v -0.323523 -0.248371 -1.207407
v -0.322280 0.297969 -1.202767
v -0.478355 -0.248371 -1.154849
v -0.476516 0.297969 -1.150411
v -0.625000 -0.248371 -1.082532
v -0.622598 0.297969 -1.078372
v -0.760952 -0.248371 -0.991692
v -0.758027 0.297969 -0.987881
v -0.883883 -0.248371 -0.883884
v -0.880486 0.297969 -0.880487
v -0.991692 -0.248371 -0.760952
v -0.987881 0.297969 -0.758027
v -1.082532 -0.248371 -0.625000
v -1.078372 0.297969 -0.622598
v -1.154849 -0.248371 -0.478355
v -1.150411 0.297969 -0.476516
v -1.207407 -0.248371 -0.323523
v -1.202767 0.297969 -0.322280
v -1.239306 -0.248371 -0.163158
v -1.234544 0.297969 -0.162531
vn -0.997800 0.008800 0.065400
vn -0.980700 0.008800 0.195100
vn -0.946900 0.008800 0.321400
vn -0.896800 0.008800 0.442300
vn -0.831400 0.008800 0.555500
vn -0.751800 0.008800 0.659300
vn -0.659300 0.008800 0.751800
vn -0.555500 0.008800 0.831400
vn -0.442300 0.008800 0.896800
vn -0.321400 0.008800 0.946900
vn -0.195100 0.008800 0.980700
vn -0.065400 0.008800 0.997800
vn 0.065400 0.008800 0.997800
vn 0.195100 0.008800 0.980700
vn 0.321400 0.008800 0.946900
vn 0.442300 0.008800 0.896800
vn 0.555500 0.008800 0.831400
vn 0.659300 0.008800 0.751800
vn 0.751800 0.008800 0.659300
vn 0.831400 0.008800 0.555500
vn 0.896800 0.008800 0.442300
vn 0.946900 0.008800 0.321400
vn 0.980700 0.008800 0.195100
vn 0.997800 0.008800 0.065400
vn 0.997800 0.008800 -0.065400
vn 0.980700 0.008800 -0.195100
vn 0.946900 0.008800 -0.321400
vn 0.896800 0.008800 -0.442300
vn 0.831400 0.008800 -0.555500
vn 0.751800 0.008800 -0.659300
vn 0.659300 0.008800 -0.751800
vn 0.555500 0.008800 -0.831400
vn 0.442300 0.008800 -0.896800
vn 0.321400 0.008800 -0.946900
vn 0.195100 0.008800 -0.980700
vn 0.065400 0.008800 -0.997800
vn -0.065400 0.008800 -0.997800
vn -0.195100 0.008800 -0.980700
vn -0.321400 0.008800 -0.946900
vn -0.442300 0.008800 -0.896800
vn -0.555500 0.008800 -0.831400
vn -0.659300 0.008800 -0.751800
vn -0.751800 0.008800 -0.659300
vn -0.831400 0.008800 -0.555500
vn -0.896800 0.008800 -0.442300
vn -0.946900 0.008800 -0.321400
vn -0.980700 0.008800 -0.195100
vn -0.997800 0.008800 -0.065400
usemtl None
s off
f 1//1 3//1 4//1 2//1
f 3//2 5//2 6//2 4//2
f 5//3 7//3 8//3 6//3
f 7//4 9//4 10//4 8//4
f 9//5 11//5 12//5 10//5
f 11//6 13//6 14//6 12//6
f 13//7 15//7 16//7 14//7
f 15//8 17//8 18//8 16//8
f 17//9 19//9 20//9 18//9
f 19//10 21//10 22//10 20//10
f 21//11 23//11 24//11 22//11
f 23//12 25//12 26//12 24//12
f 25//13 27//13 28//13 26//13
f 27//14 29//14 30//14 28//14
f 29//15 31//15 32//15 30//15
f 31//16 33//16 34//16 32//16
f 33//17 35//17 36//17 34//17
f 35//18 37//18 38//18 36//18
f 37//19 39//19 40//19 38//19
f 39//20 41//20 42//20 40//20
f 41//21 43//21 44//21 42//21
f 43//22 45//22 46//22 44//22
f 45//23 47//23 48//23 46//23
f 47//24 49//24 50//24 48//24
f 49//25 51//25 52//25 50//25
f 51//26 53//26 54//26 52//26
f 53//27 55//27 56//27 54//27
f 55//28 57//28 58//28 56//28
f 57//29 59//29 60//29 58//29
f 59//30 61//30 62//30 60//30
f 61//31 63//31 64//31 62//31
f 63//32 65//32 66//32 64//32
f 65//33 67//33 68//33 66//33
f 67//34 69//34 70//34 68//34
f 69//35 71//35 72//35 70//35
f 71//36 73//36 74//36 72//36
f 73//37 75//37 76//37 74//37
f 75//38 77//38 78//38 76//38
f 77//39 79//39 80//39 78//39
f 79//40 81//40 82//40 80//40
f 81//41 83//41 84//41 82//41
f 83//42 85//42 86//42 84//42
f 85//43 87//43 88//43 86//43
f 87//44 89//44 90//44 88//44
f 89//45 91//45 92//45 90//45
f 91//46 93//46 94//46 92//46
f 93//47 95//47 96//47 94//47
f 95//48 1//48 2//48 96//48
