# Made using Asset Forge (www.assetforge.io) version 1.2.1 

mtllib border_box.mtl 

v -0.4999999 0 0.8
v -0.4999999 0 0.4
v 0.5000001 0 0.8
v 0.5000001 0 0.4
v 0.5000001 1 0.4
v 0.5000001 1 0.8
v -0.4999999 1 0.4
v -0.4999999 1 0.8
vn 0 -1 0
vn 1 0 0
vn 0 0 -0.4
vn 0 0 0.4
vn -1 0 0
vn 0 1 0
vt 0.4999999 0.8
vt 0.4999999 0.4
vt -0.5000001 0.8
vt -0.5000001 0.4
vt 0.4 0
vt 0.4 1
vt 0.8 0
vt 0.8 1
vt 0.5000001 0
vt -0.4999999 0
vt 0.5000001 1
vt -0.4999999 1
vt 0.4999999 0
vt -0.5000001 0
vt 0.4999999 1
vt -0.5000001 1
vt -0.4 1
vt -0.4 0
vt -0.8 1
vt -0.8 0
vt 0.4999999 -0.4
vt 0.4999999 -0.8
vt -0.5000001 -0.4
vt -0.5000001 -0.8

usemtl customMaterial2
usemap customMaterial2
f 1/1/1 2/2/1 3/3/1
f 4/4/1 3/3/1 2/2/1
f 4/5/2 5/6/2 3/7/2
f 6/8/2 3/7/2 5/6/2
f 4/9/3 2/10/3 5/11/3
f 7/12/3 5/11/3 2/10/3
f 1/13/4 3/14/4 8/15/4
f 6/16/4 8/15/4 3/14/4
f 7/17/5 2/18/5 8/19/5
f 1/20/5 8/19/5 2/18/5
f 7/21/6 8/22/6 5/23/6
f 6/24/6 5/23/6 8/22/6
v -0.5 0 0.4000001
v -0.5 0 0.2000001
v 0.5 0 0.4000001
v 0.5 0 0.2000001
v 0.5 1 0.2000001
v 0.5 1 0.4000001
v -0.5 1 0.2000001
v -0.5 1 0.4000001
vn 0 0 -0.2
vn 0 0 0.2
vt 0.5 0.4000001
vt 0.5 0.2000001
vt -0.5 0.4000001
vt -0.5 0.2000001
vt 0.2000001 0
vt 0.2000001 1
vt 0.4000001 0
vt 0.4000001 1
vt 0.5 0
vt -0.5 0
vt 0.5 1
vt -0.5 1
vt -0.2000001 1
vt -0.2000001 0
vt -0.4000001 1
vt -0.4000001 0
vt 0.5 -0.2000001
vt 0.5 -0.4000001
vt -0.5 -0.2000001
vt -0.5 -0.4000001

usemtl customMaterial1
usemap customMaterial1
f 9/25/1 10/26/1 11/27/1
f 12/28/1 11/27/1 10/26/1
f 12/29/2 13/30/2 11/31/2
f 14/32/2 11/31/2 13/30/2
f 12/33/7 10/34/7 13/35/7
f 15/36/7 13/35/7 10/34/7
f 9/33/8 11/34/8 16/35/8
f 14/36/8 16/35/8 11/34/8
f 15/37/5 10/38/5 16/39/5
f 9/40/5 16/39/5 10/38/5
f 15/41/6 16/42/6 13/43/6
f 14/44/6 13/43/6 16/42/6
v -0.5000001 0 0.1999999
v -0.5000001 0 -0.2
v 0.4999999 0 0.1999999
v 0.4999999 0 -0.2
v 0.4999999 1 -0.2
v 0.4999999 1 0.1999999
v -0.5000001 1 -0.2
v -0.5000001 1 0.1999999
vt 0.5000001 0.1999999
vt 0.5000001 -0.2
vt -0.4999999 0.1999999
vt -0.4999999 -0.2
vt -0.2 0
vt -0.2 1
vt 0.1999999 0
vt 0.1999999 1
vt 0.4999999 0
vt -0.5000001 0
vt 0.4999999 1
vt -0.5000001 1
vt 0.5000001 0
vt -0.4999999 0
vt 0.5000001 1
vt -0.4999999 1
vt 0.2 1
vt 0.2 0
vt -0.1999999 1
vt -0.1999999 0
vt 0.5000001 0.2
vt 0.5000001 -0.1999999
vt -0.4999999 0.2
vt -0.4999999 -0.1999999

usemtl customMaterial2
usemap customMaterial2
f 17/45/1 18/46/1 19/47/1
f 20/48/1 19/47/1 18/46/1
f 20/49/2 21/50/2 19/51/2
f 22/52/2 19/51/2 21/50/2
f 20/53/3 18/54/3 21/55/3
f 23/56/3 21/55/3 18/54/3
f 17/57/4 19/58/4 24/59/4
f 22/60/4 24/59/4 19/58/4
f 23/61/5 18/62/5 24/63/5
f 17/64/5 24/63/5 18/62/5
f 23/65/6 24/66/6 21/67/6
f 22/68/6 21/67/6 24/66/6
v -0.5 0 -0.2
v -0.5 0 -0.4
v 0.5 0 -0.2
v 0.5 0 -0.4
v 0.5 1 -0.4
v 0.5 1 -0.2
v -0.5 1 -0.4
v -0.5 1 -0.2
vt 0.5 -0.2
vt 0.5 -0.4
vt -0.5 -0.2
vt -0.5 -0.4
vt -0.4 0
vt -0.4 1
vt -0.2 0
vt -0.2 1
vt 0.4 1
vt 0.4 0
vt 0.2 1
vt 0.2 0
vt 0.5 0.4
vt 0.5 0.2
vt -0.5 0.4
vt -0.5 0.2

usemtl customMaterial1
usemap customMaterial1
f 25/69/1 26/70/1 27/71/1
f 28/72/1 27/71/1 26/70/1
f 28/73/2 29/74/2 27/75/2
f 30/76/2 27/75/2 29/74/2
f 28/33/7 26/34/7 29/35/7
f 31/36/7 29/35/7 26/34/7
f 25/33/8 27/34/8 32/35/8
f 30/36/8 32/35/8 27/34/8
f 31/77/5 26/78/5 32/79/5
f 25/80/5 32/79/5 26/78/5
f 31/81/6 32/82/6 29/83/6
f 30/84/6 29/83/6 32/82/6
v -0.5 4.470348E-08 -0.4
v -0.5 4.470348E-08 -0.8
v 0.5 4.470348E-08 -0.4
v 0.5 4.470348E-08 -0.8
v 0.5 1 -0.8
v 0.5 1 -0.4
v -0.5 1 -0.8
v -0.5 1 -0.4
vt 0.5 -0.4
vt 0.5 -0.8
vt -0.5 -0.4
vt -0.5 -0.8
vt -0.8 4.470348E-08
vt -0.4 4.470348E-08
vt 0.5 4.470348E-08
vt -0.5 4.470348E-08
vt 0.8 4.470348E-08
vt 0.4 4.470348E-08
vt 0.5 0.8
vt 0.5 0.4
vt -0.5 0.8
vt -0.5 0.4

usemtl customMaterial2
usemap customMaterial2
f 33/85/1 34/86/1 35/87/1
f 36/88/1 35/87/1 34/86/1
f 36/89/2 37/19/2 35/90/2
f 38/17/2 35/90/2 37/19/2
f 36/91/3 34/92/3 37/35/3
f 39/36/3 37/35/3 34/92/3
f 33/91/4 35/92/4 40/35/4
f 38/36/4 40/35/4 35/92/4
f 39/8/5 34/93/5 40/6/5
f 33/94/5 40/6/5 34/93/5
f 39/95/6 40/96/6 37/97/6
f 38/98/6 37/97/6 40/96/6
