# Made using Asset Forge (www.assetforge.io) version 1.3 

mtllib cannon.mtl 

g ship_cargoFront_6

v -0.2000001 -0.1 0.2
v -0.2 -0.1 -0.2000001
v -0.2 7.450581E-09 0.156
v -0.2 7.450581E-09 -0.1560001
v -0.2 0.1 0.112
v -0.2 0.1 -0.1120001
v 0.2 -0.1 0.2000001
v 0.2000001 -0.1 -0.2
v 0.08750002 7.450581E-09 -0.156
v 0.1 7.450581E-09 -0.142
v 0.1 7.450581E-09 0.142
v 0.08749999 7.450581E-09 0.156
v -0.02500002 0.1 0.112
v -7.450581E-09 0.1 0.08400001
v 7.450581E-09 0.1 -0.08400001
v -0.02499999 0.1 -0.112
vn -0.4000001 0 -5.960464E-08
vn 0 -0.4 0
vn 2.980232E-08 0.1610954 -0.3661261
vn 0.2828428 0.2828427 2.980232E-08
vn -2.980232E-08 0.1610954 0.3661261
vn 0.1975199 0.2998069 0.1763569
vn 0.1975199 0.2998069 0.176357
vn 0.1975199 0.2998069 0.176357
vn 0.1975199 0.2998069 -0.1763569
vn 0.1975199 0.2998069 -0.1763569
vn 0 0.4 0
vn 0.1975199 0.2998069 -0.176357
vn 0.1975199 0.2998069 0.176357
vn 0.1975198 0.2998069 0.176357
vt 0.2 -0.1
vt -0.2000001 -0.1
vt 0.156 7.450581E-09
vt -0.1560001 7.450581E-09
vt 0.112 0.1
vt -0.112 0.1
vt 0.2000001 -0.2
vt -0.2 -0.2000001
vt 0.2 0.2000001
vt -0.2000001 0.2
vt -0.2000001 -0.1
vt -0.08750004 7.450581E-09
vt 0.2 -0.1
vt 0.2 7.450581E-09
vt -0.2000001 -0.2
vt -0.2 0.2000001
vt -0.1 -0.142
vt -0.1 0.142
vt 0.0875 7.450581E-09
vt -0.2 7.450581E-09
vt -0.0875 0.156
vt -0.08750004 -0.156
vt -0.02500002 0.1
vt -0.2 0.1
vt 0.02500002 0.112
vt 0.2 0.112
vt 1.001358E-08 0.08400001
vt 0.2 -0.112
vt -1.001358E-08 -0.08400001
vt 0.02499999 -0.112
vt 0.02499999 0.1
vt 0.2 0.1

usemtl _defaultMat (Instance)
usemap _defaultMat (Instance)
f 3/3/1 2/2/1 1/1/1
f 2/2/1 3/3/1 4/4/1
f 4/4/1 3/3/1 5/5/1
f 4/4/1 5/5/1 6/6/1
f 2/9/2 7/8/2 1/7/2
f 7/8/2 2/9/2 8/10/2
f 2/13/3 9/12/3 8/11/3
f 9/12/3 2/13/3 4/14/3
f 10/17/4 7/16/4 8/15/4
f 7/16/4 10/17/4 11/18/4
f 12/19/5 1/11/5 7/13/5
f 1/11/5 12/19/5 3/20/5
f 11/18/8 12/21/7 7/16/6
f 8/15/9 9/22/10 10/17/9

usemtl blueSteel (Instance)
usemap blueSteel (Instance)
f 13/23/5 3/20/5 12/19/5
f 3/20/5 13/23/5 5/24/5
f 14/27/11 5/26/11 13/25/11
f 5/26/11 14/27/11 6/28/11
f 6/28/11 14/27/11 15/29/11
f 6/28/11 15/29/11 16/30/11
f 4/14/3 16/31/3 9/12/3
f 16/31/3 4/14/3 6/32/3
f 10/17/4 14/27/4 11/18/4
f 14/27/4 10/17/4 15/29/4
f 10/17/9 16/30/9 15/29/12
f 16/30/9 10/17/9 9/22/10
f 11/18/8 13/25/13 12/21/7
f 13/25/13 11/18/8 14/27/14
g engine_barrel_7

v 0.09999998 -0.1 0.03455999
v 0.2 -0.1 0.03456001
v 0.09999999 -0.1 -0.03456002
v 0.2 -0.1 -0.03456001
v 0.2 -0.02642452 -0.07344001
v 0.2 0.0008000061 -0.03456001
v 0.09999999 -0.02642452 -0.07344002
v 0.09999999 0.0008000061 -0.03456002
v 0.2 -0.05015434 -0.07344001
v 0.09999999 -0.05015434 -0.07344002
v 0.2 0.0008000061 0.03456001
v 0.2 -0.02642452 0.07344001
v 0.09999998 0.0008000061 0.03455999
v 0.09999998 -0.02642452 0.07343999
v 0.2 -0.05015434 0.07344001
v 0.09999998 -0.05015434 0.07343999
v 0.3 -0.1 0.03456002
v 0.3 -0.0821975 -0.01022908
v 0.3 -0.1 -0.03455999
v 0.3 -0.05015434 -0.07343999
v 0.3 -0.0821975 0.01022911
v 0.3 -0.04680565 -0.03783501
v 0.3 -0.02642452 -0.07343999
v 0.3 -0.03212814 -0.03783501
v 0.3 -0.01700248 -0.01623369
v 0.3 0.0008000061 -0.03455999
v 0.3 -0.01700248 0.01623372
v 0.3 -0.05015434 0.07344002
v 0.3 -0.04680565 0.03783503
v 0.3 -0.02642452 0.07344002
v 0.3 -0.03212814 0.03783503
v 0.3 0.0008000061 0.03456002
v 0.286 -0.01700248 0.01623371
v 0.286 -0.01700248 -0.0162337
v 0.286 -0.03212814 -0.03783501
v 0.286 -0.03212814 0.03783502
v 0.286 -0.04680565 0.03783502
v 0.286 -0.04680565 -0.03783501
vn 0 -0.2 0
vn 2.980232E-08 0.1162236 -0.3255279
vn 5.960464E-08 0 -0.4000001
vn -2.980232E-08 0.1162236 0.3255279
vn 2.980232E-08 -0.07266969 -0.3726614
vn 0 0.2 0
vn -5.960464E-08 0 0.4000001
vn -2.980232E-08 -0.07266969 0.3726614
vn 0.2 0 2.980232E-08
vn -0.2 0 -2.980232E-08
vn -2.980232E-08 -0.1162235 0.3255279
vn 2.980232E-08 -0.1162235 -0.3255279
vn -2.980232E-08 0.07266969 0.3726614
vn 0.185978 0.07356755 1.490116E-08
vn 2.980232E-08 0.07266969 -0.3726614
vt -0.09999998 -0.03455999
vt -0.2 -0.03456001
vt -0.09999999 0.03456002
vt -0.2 0.03456001
vt -0.2 -0.07344001
vt -0.09999999 -0.07344002
vt -0.09999999 -0.03456002
vt -0.2 -0.05015434
vt -0.2 -0.02642452
vt -0.09999999 -0.05015434
vt -0.09999999 -0.02642452
vt -0.2 0.07344001
vt -0.09999998 0.03455999
vt -0.09999998 0.07344
vt -0.2 -0.1
vt -0.09999999 -0.1
vt 0.2 -0.02642452
vt 0.2 -0.05015434
vt 0.09999998 -0.02642452
vt 0.09999998 -0.05015434
vt 0.09999998 -0.1
vt -0.03456002 -0.1
vt 0.01022908 -0.08219751
vt 0.03455999 -0.1
vt 0.07344 -0.05015434
vt -0.01022911 -0.08219751
vt 0.03783501 -0.04680565
vt 0.07344 -0.02642452
vt 0.03783501 -0.03212814
vt 0.01623369 -0.01700248
vt 0.03455999 0.0008000091
vt -0.01623372 -0.01700248
vt -0.07344002 -0.05015434
vt -0.03783503 -0.04680565
vt -0.07344002 -0.02642452
vt -0.03783503 -0.03212814
vt -0.03456002 0.0008000091
vt -0.286 -0.01623371
vt -0.3 -0.01623372
vt -0.286 0.01623369
vt -0.3 0.01623369
vt -0.3 -0.07344
vt -0.3 -0.03455999
vt -0.3 0.03456002
vt -0.3 0.07344002
vt 0.3 -0.02642452
vt 0.3 -0.05015434
vt 0.3 -0.1
vt -0.3 -0.03456002
vt -0.3 0.03455999
vt -0.3 -0.1
vt -0.3 -0.05015434
vt -0.3 -0.02642452
vt -0.3 0.03783501
vt -0.286 0.03783501
vt -0.3 -0.03783503
vt -0.286 -0.03783503
vt -0.3 -0.04680565
vt -0.3 -0.03212814
vt -0.286 -0.04680565
vt -0.286 -0.03212814
vt 0.3 -0.03212814
vt 0.3 -0.04680565
vt 0.286 -0.03212814
vt 0.286 -0.04680565
vt 0.3 -0.08219751
vt -0.01623371 -0.01700248
vt 0.01623369 -0.01700248
vt -0.3 -0.08219751

usemtl black (Instance)
usemap black (Instance)
f 19/35/15 18/34/15 17/33/15
f 18/34/15 19/35/15 20/36/15
f 23/38/16 22/34/16 21/37/16
f 22/34/16 23/38/16 24/39/16
f 26/42/17 21/41/17 25/40/17
f 21/41/17 26/42/17 23/43/17
f 29/45/18 28/44/18 27/36/18
f 28/44/18 29/45/18 30/46/18
f 19/48/19 25/40/19 20/47/19
f 25/40/19 19/48/19 26/42/19
f 22/34/20 29/45/20 27/36/20
f 29/45/20 22/34/20 24/39/20
f 30/51/21 31/50/21 28/49/21
f 31/50/21 30/51/21 32/52/21
f 32/52/22 18/13/22 31/50/22
f 18/13/22 32/52/22 17/53/22
f 35/56/23 34/55/23 33/54/23
f 34/55/23 35/56/23 36/57/23
f 33/54/23 34/55/23 37/58/23
f 34/55/23 36/57/23 38/59/23
f 38/59/23 36/57/23 39/60/23
f 38/59/23 39/60/23 40/61/23
f 40/61/23 39/60/23 41/62/23
f 41/62/23 39/60/23 42/63/23
f 41/62/23 42/63/23 43/64/23
f 37/58/23 44/65/23 33/54/23
f 44/65/23 37/58/23 45/66/23
f 44/65/23 45/66/23 46/67/23
f 46/67/23 45/66/23 47/68/23
f 46/67/23 47/68/23 43/64/23
f 46/67/23 43/64/23 48/69/23
f 48/69/23 43/64/23 42/63/23
f 32/57/24 19/54/24 17/56/24
f 19/54/24 32/57/24 26/65/24
f 26/65/24 32/57/24 30/60/24
f 26/65/24 30/60/24 23/67/24
f 23/67/24 30/60/24 24/69/24
f 24/69/24 30/60/24 29/63/24
f 50/72/15 43/71/15 49/70/15
f 43/71/15 50/72/15 41/73/15

usemtl blueSteel (Instance) (Instance)
usemap blueSteel (Instance) (Instance)
f 21/37/16 42/75/16 39/74/16
f 42/75/16 21/37/16 22/34/16
f 42/75/20 27/36/20 48/76/20
f 27/36/20 42/75/20 22/34/20
f 27/36/18 46/77/18 48/76/18
f 46/77/18 27/36/18 28/44/18
f 28/49/21 44/79/21 46/78/21
f 44/79/21 28/49/21 31/50/21
f 31/50/22 33/80/22 44/79/22
f 33/80/22 31/50/22 18/13/22
f 20/36/15 33/81/15 18/34/15
f 33/81/15 20/36/15 35/82/15
f 20/47/19 36/84/19 35/83/19
f 36/84/19 20/47/19 25/40/19
f 25/40/17 39/85/17 36/84/17
f 39/85/17 25/40/17 21/41/17

usemtl black (Instance)
usemap black (Instance)
f 50/72/25 40/86/25 41/73/25
f 40/86/25 50/72/25 51/87/25
f 52/89/26 43/71/26 47/88/26
f 43/71/26 52/89/26 49/70/26
f 53/92/17 47/91/17 45/90/17
f 47/91/17 53/92/17 52/93/17
f 51/96/21 38/95/21 40/94/21
f 38/95/21 51/96/21 54/97/21
f 54/97/27 34/98/27 38/95/27
f 34/55/28 53/66/28 37/58/28
f 53/66/28 34/55/28 54/59/28
f 54/59/23 52/68/23 53/66/23
f 52/68/23 54/59/23 51/61/23
f 52/68/23 51/61/23 49/99/23
f 49/99/23 51/61/23 50/100/23
f 53/92/29 45/90/29 37/101/29
