# Blender v2.74 (sub 0) OBJ File: ''
# www.blender.org
mtllib cube.mtl
o block_rounded_0
v 0.187500 0.190230 0.250000
v -0.187500 -0.184770 0.250000
v 0.187500 -0.184770 0.250000
v -0.187500 0.190230 0.250000
v 0.250000 0.190230 0.187500
v 0.250000 -0.184769 -0.187500
v 0.250000 0.190231 -0.187500
v 0.250000 -0.184770 0.187500
v -0.187500 0.252731 -0.187500
v 0.187500 0.252730 0.187500
v 0.187500 0.252731 -0.187500
v -0.187500 0.252730 0.187500
v -0.187500 0.190231 -0.250000
v 0.187500 -0.184769 -0.250000
v -0.187500 -0.184769 -0.250000
v 0.187500 0.190231 -0.250000
v -0.187500 -0.247270 0.187500
v 0.187500 -0.247269 -0.187500
v 0.187500 -0.247270 0.187500
v -0.187500 -0.247269 -0.187500
v -0.250000 -0.184770 0.187500
v -0.250000 0.190231 -0.187500
v -0.250000 -0.184769 -0.187500
v -0.250000 0.190230 0.187500
vt 0.375000 0.875000
vt -0.375000 0.125000
vt 0.375000 0.125000
vt -0.375000 0.875000
vt 0.375000 -0.375000
vt -0.375000 0.375000
vt -0.375000 -0.375000
vt 0.375000 0.375000
vt -0.375000 1.000000
vt -0.500000 0.875000
vt -0.500000 0.125000
vt 0.375000 0.000000
vt -0.375000 0.000000
vt -0.500000 0.375000
vt -0.500000 -0.375000
vt 0.375000 1.000000
vt 0.500000 0.875000
vt 0.500000 0.125000
vt 0.500000 0.375000
vt 0.500000 -0.375000
vn 0.000000 -0.000000 1.000000
vn 1.000000 0.000000 0.000000
vn 0.000000 1.000000 0.000000
vn 0.000000 0.000000 -1.000000
vn 0.000000 -1.000000 -0.000000
vn -1.000000 0.000000 0.000000
vn 0.577400 0.577400 -0.577400
vn 0.707100 0.000000 -0.707100
vn 0.000000 -0.707100 -0.707100
vn 0.577400 -0.577400 -0.577400
vn 0.707100 -0.707100 -0.000000
vn 0.707100 0.707100 0.000000
vn 0.577400 0.577300 0.577400
vn 0.707100 -0.000000 0.707100
vn 0.577400 -0.577400 0.577400
vn 0.000000 0.707100 0.707100
vn -0.577400 0.577300 0.577400
vn -0.707100 -0.707100 -0.000000
vn 0.000000 -0.707100 0.707100
vn -0.707100 -0.000000 0.707100
vn -0.577400 -0.577400 0.577400
vn -0.577400 -0.577300 -0.577400
vn -0.707100 0.000000 -0.707100
vn -0.707100 0.707100 0.000000
vn 0.000000 0.707100 -0.707100
vn -0.577400 0.577400 -0.577400
usemtl _defaultMat_(Instance)
s 1
f 1/1/1 2/2/1 3/3/1
f 2/2/1 1/1/1 4/4/1
f 5/4/2 6/3/2 7/1/2
f 6/3/2 5/4/2 8/2/2
f 9/5/3 10/6/3 11/7/3
f 10/6/3 9/5/3 12/8/3
f 13/1/4 14/2/4 15/3/4
f 14/2/4 13/1/4 16/4/4
f 17/5/5 18/6/5 19/7/5
f 18/6/5 17/5/5 20/8/5
f 21/3/6 22/4/6 23/2/6
f 22/4/6 21/3/6 24/1/6
f 11/9/7 7/10/7 16/4/7
f 16/4/8 6/11/8 14/2/8
f 6/11/8 16/4/8 7/10/8
f 20/12/9 14/2/9 18/13/9
f 14/2/9 20/12/9 15/3/9
f 14/2/10 6/11/10 18/13/10
f 19/7/11 6/14/11 8/15/11
f 6/14/11 19/7/11 18/6/11
f 11/7/12 5/14/12 7/15/12
f 5/14/12 11/7/12 10/6/12
f 10/16/13 1/1/13 5/17/13
f 5/17/14 3/3/14 8/18/14
f 3/3/14 5/17/14 1/1/14
f 3/3/15 19/12/15 8/18/15
f 10/16/16 4/4/16 1/1/16
f 4/4/16 10/16/16 12/9/16
f 4/4/17 12/9/17 24/10/17
f 17/5/18 23/19/18 20/8/18
f 23/19/18 17/5/18 21/20/18
f 3/3/19 17/13/19 19/12/19
f 17/13/19 3/3/19 2/2/19
f 2/2/20 24/10/20 21/11/20
f 24/10/20 2/2/20 4/4/20
f 2/2/21 21/11/21 17/13/21
f 23/18/22 15/3/22 20/12/22
f 23/18/23 13/1/23 15/3/23
f 13/1/23 23/18/23 22/17/23
f 24/19/24 9/5/24 22/20/24
f 9/5/24 24/19/24 12/8/24
f 13/1/25 11/9/25 16/4/25
f 11/9/25 13/1/25 9/16/25
f 9/16/26 13/1/26 22/17/26
