# Made using Asset Forge (www.assetforge.io) version 1.3 

mtllib cursor.mtl 

g cursor_0

v -7.450581E-09 0 0.3997516
v -7.450581E-09 0 0.3597764
v 0.1376808 0 0.3323908
v 0.1529784 0 0.369322
v -0.2826668 0 0.2826672
v -0.2544012 0 0.2544012
v -0.1376808 0 0.3323908
v -0.152978 0 0.3693224
v -0.3997516 0 -3.72529E-09
v -0.3597764 0 -3.72529E-09
v -0.3323908 0 0.1376808
v -0.369322 0 0.1529784
v 0.1529784 0 -0.369322
v 0.1376808 0 -0.3323908
v -7.450581E-09 0 -0.3597764
v -7.450581E-09 0 -0.3997516
v -0.2826668 0 -0.2826672
v -0.2544012 0 -0.2544012
v -0.3323908 0 -0.1376808
v -0.369322 0 -0.1529784
v 0.369322 0 -0.1529784
v 0.3323908 0 -0.1376808
v 0.2544012 0 -0.2544012
v 0.2826668 0 -0.2826668
v 0.369322 0 0.1529784
v 0.3323908 0 0.1376808
v 0.3597764 0 -3.72529E-09
v 0.3997516 0 -3.72529E-09
v 0.2544012 0 0.2544012
v 0.2826668 0 0.2826668
v -0.152978 0 -0.3693224
v -0.1376808 0 -0.3323908
v 0.08443359 0 -0.2038404
v 0.07599039 0 -0.1834568
v -7.450581E-09 0 -0.1985716
v -7.450581E-09 0 -0.2206352
v 0.1560128 0 -0.1560128
v 0.140412 0 -0.140412
v 0.2038404 0 -0.0844336
v 0.1834568 0 -0.07599041
v 0.2206352 0 -3.72529E-09
v 0.1985716 0 -3.72529E-09
v 0.2038404 0 0.0844336
v 0.1834568 0 0.07599039
v 0.1560128 0 0.1560128
v 0.140412 0 0.140412
v 0.08443359 0 0.2038404
v 0.07599039 0 0.1834568
v -7.450581E-09 0 0.2206352
v -7.450581E-09 0 0.1985716
v -0.08443321 0 0.2038404
v -0.07599041 0 0.1834568
v -0.1560124 0 0.1560128
v -0.140412 0 0.140412
v -0.2038404 0 0.0844336
v -0.1834568 0 0.07599039
v -0.2206352 0 -3.72529E-09
v -0.1985716 0 -3.72529E-09
v -0.2038404 0 -0.0844336
v -0.1834568 0 -0.07599041
v -0.1560124 0 -0.1560128
v -0.140412 0 -0.140412
v -0.08443321 0 -0.2038404
v -0.07599041 0 -0.1834568
vn 0 1 0
vt 7.450581E-09 0.3997516
vt 7.450581E-09 0.3597764
vt -0.1376808 0.3323908
vt -0.1529784 0.369322
vt 0.2826668 0.2826672
vt 0.2544012 0.2544012
vt 0.1376808 0.3323908
vt 0.152978 0.3693224
vt 0.3997516 -3.72529E-09
vt 0.3597764 -3.72529E-09
vt 0.3323908 0.1376808
vt 0.369322 0.1529784
vt -0.1529784 -0.369322
vt -0.1376808 -0.3323908
vt 7.450581E-09 -0.3597764
vt 7.450581E-09 -0.3997516
vt 0.2826668 -0.2826672
vt 0.2544012 -0.2544012
vt 0.3323908 -0.1376808
vt 0.369322 -0.1529784
vt -0.369322 -0.1529784
vt -0.3323908 -0.1376808
vt -0.2544012 -0.2544012
vt -0.2826668 -0.2826668
vt -0.369322 0.1529784
vt -0.3323908 0.1376808
vt -0.3597764 -3.72529E-09
vt -0.3997516 -3.72529E-09
vt -0.2544012 0.2544012
vt -0.2826668 0.2826668
vt 0.152978 -0.3693224
vt 0.1376808 -0.3323908
vt -0.08443359 -0.2038404
vt -0.07599039 -0.1834568
vt 7.450581E-09 -0.1985716
vt 7.450581E-09 -0.2206352
vt -0.1560128 -0.1560128
vt -0.140412 -0.140412
vt -0.2038404 -0.0844336
vt -0.1834568 -0.07599041
vt -0.2206352 -3.72529E-09
vt -0.1985716 -3.72529E-09
vt -0.2038404 0.08443359
vt -0.1834568 0.0759904
vt -0.1560128 0.1560128
vt -0.140412 0.140412
vt -0.08443359 0.2038404
vt -0.07599039 0.1834568
vt 7.450581E-09 0.2206352
vt 7.450581E-09 0.1985716
vt 0.08443321 0.2038404
vt 0.07599041 0.1834568
vt 0.1560124 0.1560128
vt 0.140412 0.140412
vt 0.2038404 0.08443359
vt 0.1834568 0.0759904
vt 0.2206352 -3.72529E-09
vt 0.1985716 -3.72529E-09
vt 0.2038404 -0.0844336
vt 0.1834568 -0.07599041
vt 0.1560124 -0.1560128
vt 0.140412 -0.140412
vt 0.08443321 -0.2038404
vt 0.07599041 -0.1834568

usemtl Material.001 (Instance)
usemap Material.001 (Instance)
f 3/3/1 2/2/1 1/1/1
f 1/1/1 4/4/1 3/3/1
f 7/7/1 6/6/1 5/5/1
f 5/5/1 8/8/1 7/7/1
f 11/11/1 10/10/1 9/9/1
f 9/9/1 12/12/1 11/11/1
f 15/15/1 14/14/1 13/13/1
f 13/13/1 16/16/1 15/15/1
f 19/19/1 18/18/1 17/17/1
f 17/17/1 20/20/1 19/19/1
f 23/23/1 22/22/1 21/21/1
f 21/21/1 24/24/1 23/23/1
f 27/27/1 26/26/1 25/25/1
f 25/25/1 28/28/1 27/27/1
f 29/29/1 3/3/1 4/4/1
f 4/4/1 30/30/1 29/29/1
f 2/2/1 7/7/1 8/8/1
f 8/8/1 1/1/1 2/2/1
f 6/6/1 11/11/1 12/12/1
f 12/12/1 5/5/1 6/6/1
f 18/18/1 32/32/1 31/31/1
f 31/31/1 17/17/1 18/18/1
f 10/10/1 19/19/1 20/20/1
f 20/20/1 9/9/1 10/10/1
f 14/14/1 23/23/1 24/24/1
f 24/24/1 13/13/1 14/14/1
f 32/32/1 15/15/1 16/16/1
f 16/16/1 31/31/1 32/32/1
f 22/22/1 27/27/1 28/28/1
f 28/28/1 21/21/1 22/22/1
f 26/26/1 29/29/1 30/30/1
f 30/30/1 25/25/1 26/26/1
f 35/35/1 34/34/1 33/33/1
f 33/33/1 36/36/1 35/35/1
f 34/34/1 38/38/1 37/37/1
f 37/37/1 33/33/1 34/34/1
f 38/38/1 40/40/1 39/39/1
f 39/39/1 37/37/1 38/38/1
f 40/40/1 42/42/1 41/41/1
f 41/41/1 39/39/1 40/40/1
f 42/42/1 44/44/1 43/43/1
f 43/43/1 41/41/1 42/42/1
f 44/44/1 46/46/1 45/45/1
f 45/45/1 43/43/1 44/44/1
f 46/46/1 48/48/1 47/47/1
f 47/47/1 45/45/1 46/46/1
f 48/48/1 50/50/1 49/49/1
f 49/49/1 47/47/1 48/48/1
f 50/50/1 52/52/1 51/51/1
f 51/51/1 49/49/1 50/50/1
f 52/52/1 54/54/1 53/53/1
f 53/53/1 51/51/1 52/52/1
f 54/54/1 56/56/1 55/55/1
f 55/55/1 53/53/1 54/54/1
f 56/56/1 58/58/1 57/57/1
f 57/57/1 55/55/1 56/56/1
f 58/58/1 60/60/1 59/59/1
f 59/59/1 57/57/1 58/58/1
f 60/60/1 62/62/1 61/61/1
f 61/61/1 59/59/1 60/60/1
f 62/62/1 64/64/1 63/63/1
f 63/63/1 61/61/1 62/62/1
f 64/64/1 35/35/1 36/36/1
f 36/36/1 63/63/1 64/64/1
