# Blender v2.74 (sub 0) OBJ File: 'green_base.blend'
# www.blender.org
mtllib green_base.mtl
o Cube
v 0.400000 -0.000672 -0.400000
v 0.400000 -0.000672 0.400000
v -0.400000 -0.000672 0.400000
v -0.400000 -0.000672 -0.400000
v 0.400000 0.138929 -0.400000
v 0.400000 0.138929 0.400000
v -0.400000 0.138929 0.400000
v -0.400000 0.138929 -0.400000
v -0.500000 -0.000279 0.200000
v -0.500000 0.138536 0.200000
v -0.500000 -0.000279 -0.200000
v -0.500000 0.138536 -0.200000
v -0.400000 -0.000279 0.200000
v -0.400000 0.138536 0.200000
v -0.400000 -0.000279 -0.200000
v -0.400000 0.138536 -0.200000
v -0.500000 0.138536 0.200000
v -0.500000 0.138536 -0.200000
v -0.400000 0.138536 -0.200000
v -0.400000 0.138536 0.200000
v -0.500000 0.188536 0.200000
v -0.500000 0.188536 -0.200000
v -0.400000 0.188536 -0.200000
v -0.400000 0.188536 0.200000
v -0.400000 0.138536 -0.200000
v -0.400000 0.138536 0.200000
v -0.400000 0.188536 -0.200000
v -0.400000 0.188536 0.200000
v 0.400000 0.138536 -0.200000
v 0.400000 0.138536 0.200000
v 0.400000 0.188536 -0.200000
v 0.400000 0.188536 0.200000
v 0.400000 0.138536 -0.200000
v 0.400000 0.138536 0.200000
v 0.400000 0.188536 -0.200000
v 0.400000 0.188536 0.200000
v 0.400000 0.138536 -0.200000
v 0.400000 0.138536 0.200000
v 0.400000 0.188536 -0.200000
v 0.400000 0.188536 0.200000
v 0.450000 0.138536 -0.200000
v 0.450000 0.138536 0.200000
v 0.450000 0.188536 -0.200000
v 0.450000 0.188536 0.200000
v 0.400000 -0.000655 -0.200000
v 0.400000 -0.000655 0.200000
v 0.450000 -0.000655 -0.200000
v 0.450000 -0.000655 0.200000
v -0.212292 -0.000485 0.400787
v 0.188433 -0.000485 0.400787
v 0.188433 -0.000485 0.450787
v -0.212292 -0.000485 0.450787
v -0.212292 0.138536 0.450787
v -0.212292 0.188536 0.450787
v 0.188434 0.188536 0.450787
v 0.188433 0.138536 0.450787
v -0.212292 -0.000055 -0.399139
v -0.212292 -0.000055 -0.449139
v 0.188434 -0.000055 -0.449139
v 0.188434 -0.000055 -0.399139
v -0.212292 0.188536 -0.449139
v 0.188434 0.188536 -0.449139
v -0.212292 0.138536 -0.449139
v 0.188434 0.138536 -0.449139
v -0.212292 0.138536 -0.399139
v 0.188434 0.138536 -0.399139
v -0.212292 0.188536 -0.399139
v 0.188434 0.188536 -0.399139
v 0.188433 0.138536 0.400787
v -0.212292 0.138536 0.400787
v -0.212292 0.188536 0.400787
v 0.188434 0.188536 0.400787
v -0.212292 0.138536 0.200000
v -0.212292 0.188536 0.200000
v -0.212292 0.188536 -0.200000
v -0.212292 0.138536 -0.200000
v 0.188433 0.138536 0.200000
v 0.188434 0.188536 0.200000
v 0.188434 0.188536 -0.200000
v 0.188434 0.138536 -0.200000
vn -1.000000 0.000000 0.000000
vn 0.000000 0.000000 -1.000000
vn 1.000000 0.000000 0.000000
vn 0.000000 0.000000 1.000000
vn 0.000000 -1.000000 0.000000
vn 0.000000 1.000000 0.000000
usemtl Material
s off
f 9//1 10//1 12//1 11//1
f 11//2 12//2 16//2 15//2
f 15//3 16//3 14//3 13//3
f 13//4 14//4 10//4 9//4
f 11//5 15//5 13//5 9//5
f 10//4 14//4 20//4 17//4
f 23//4 24//4 28//4 27//4
f 16//4 12//4 18//4 19//4
f 14//4 16//4 19//4 20//4
f 12//4 10//4 17//4 18//4
f 23//6 22//6 21//6 24//6
f 18//1 17//1 21//1 22//1
f 17//4 20//4 24//4 21//4
f 19//2 18//2 22//2 23//2
f 78//4 77//4 30//4 32//4
f 20//4 19//4 25//4 26//4
f 24//4 20//4 26//4 28//4
f 19//4 23//4 27//4 25//4
f 29//4 31//4 35//4 33//4
f 79//6 78//6 32//6 31//6
f 80//2 79//2 31//2 29//2
f 77//5 80//5 29//5 30//5
f 34//4 33//4 37//4 38//4
f 30//4 29//4 33//4 34//4
f 32//4 30//4 34//4 36//4
f 31//4 32//4 36//4 35//4
f 40//4 38//4 42//4 44//4
f 36//4 34//4 38//4 40//4
f 35//4 36//4 40//4 39//4
f 33//4 35//4 39//4 37//4
f 42//3 41//3 43//3 44//3
f 39//6 40//6 44//6 43//6
f 37//2 39//2 43//2 41//2
f 42//4 38//4 46//4 48//4
f 46//5 45//5 47//5 48//5
f 41//3 42//3 48//3 47//3
f 37//2 41//2 47//2 45//2
f 38//1 37//1 45//1 46//1
f 69//3 56//3 51//3 50//3
f 70//2 69//2 50//2 49//2
f 53//1 70//1 49//1 52//1
f 56//4 53//4 52//4 51//4
f 66//4 65//4 57//4 60//4
f 69//3 72//3 55//3 56//3
f 72//6 71//6 54//6 55//6
f 49//5 50//5 51//5 52//5
f 60//5 57//5 58//5 59//5
f 54//4 53//4 56//4 55//4
f 63//2 64//2 59//2 58//2
f 65//1 63//1 58//1 57//1
f 79//3 80//3 66//3 68//3
f 67//6 68//6 62//6 61//6
f 68//3 66//3 64//3 62//3
f 64//3 66//3 60//3 59//3
f 78//6 74//6 71//6 72//6
f 77//3 78//3 72//3 69//3
f 80//5 76//5 65//5 66//5
f 65//1 67//1 61//1 63//1
f 71//1 70//1 53//1 54//1
f 73//5 77//5 69//5 70//5
f 76//1 75//1 67//1 65//1
f 63//2 61//2 62//2 64//2
f 26//5 25//5 76//5 73//5
f 25//2 27//2 75//2 76//2
f 27//6 28//6 74//6 75//6
f 28//4 26//4 73//4 74//4
f 73//5 76//5 80//5 77//5
f 75//6 79//6 68//6 67//6
f 75//6 74//6 78//6 79//6
f 74//1 73//1 70//1 71//1
usemtl Material.001
f 1//5 2//5 3//5 4//5
f 5//6 8//6 7//6 6//6
f 1//3 5//3 6//3 2//3
f 2//4 6//4 7//4 3//4
f 3//1 7//1 8//1 4//1
f 5//2 1//2 4//2 8//2
