# Made using Asset Forge (www.assetforge.io) version 1.2.1 

mtllib grid_box.mtl 

v 0.3 0 0.5
v 0.3 0 0.3
v -0.3 0 0.5
v -0.3 0 0.3
v -0.3 0.2 0.3
v -0.3 0.2 0.5
v 0.3 0.2 0.3
v 0.3 0.2 0.5
vn 0 -0.2 0
vn -0.5999999 0 0
vn 0 0 -0.2
vn 0 0 0.2
vn 0.5999999 0 0
vn 0 0.2 0
vt -0.3 -0.5
vt -0.3 -0.3
vt 0.3 -0.5
vt 0.3 -0.3
vt 0.3 0
vt 0.3 0.2
vt 0.5 0
vt 0.5 0.2
vt -0.3 0
vt -0.3 0.2
vt -0.5 0.2
vt -0.5 0
vt -0.3 0.3
vt -0.3 0.5
vt 0.3 0.3
vt 0.3 0.5

usemtl _defaultMat (Instance) (Instance)
usemap _defaultMat (Instance) (Instance)
f 3/3/1 2/2/1 1/1/1
f 2/2/1 3/3/1 4/4/1
f 3/7/2 5/6/2 4/5/2
f 5/6/2 3/7/2 6/8/2
f 5/6/3 2/9/3 4/5/3
f 2/9/3 5/6/3 7/10/3
f 8/6/4 3/9/4 1/5/4
f 3/9/4 8/6/4 6/10/4
f 8/11/5 2/9/5 7/10/5
f 2/9/5 8/11/5 1/12/5
f 5/15/6 8/14/6 7/13/6
f 8/14/6 5/15/6 6/16/6
v -0.3 0 -0.3
v -0.5 0 0.3
v -0.5 0 -0.3
v -0.5 0.2 -0.3
v -0.5 0.2 0.3
v -0.3 0.2 -0.3
v -0.3 0.2 0.3
vn 0 -0.2 0
vn -0.2 0 0
vn 0 0 -0.5999999
vn 0 0 0.5999999
vn 0.2 0 0
vn 0 0.2 0
vt 0.5 -0.3
vt 0.5 0.3
vt -0.3 0.2
vt 0.3 0.2
vt 0.5 0.2
vt -0.5 0.2

usemtl _defaultMat (Instance) (Instance)
usemap _defaultMat (Instance) (Instance)
f 10/17/7 9/15/7 4/4/7
f 9/15/7 10/17/7 11/18/7
f 10/5/8 12/19/8 11/9/8
f 12/19/8 10/5/8 13/20/8
f 12/21/9 9/5/9 11/7/9
f 9/5/9 12/21/9 14/20/9
f 15/19/10 10/12/10 4/9/10
f 10/12/10 15/19/10 13/22/10
f 15/19/11 9/5/11 14/20/11
f 9/5/11 15/19/11 4/9/11
f 12/17/12 15/15/12 14/4/12
f 15/15/12 12/17/12 13/18/12
v 0.3 0 -0.3
v 0.3 0 -0.5
v -0.3 0 -0.3
v -0.3 0 -0.5
v -0.3 0.2 -0.5
v -0.3 0.2 -0.3
v 0.3 0.2 -0.5
v 0.3 0.2 -0.3
vt -0.3 0.3
vt 0.3 0.3
vt -0.3 0
vt -0.3 0.2
vt 0.3 0.2
vt 0.3 0
vt -0.3 -0.3
vt 0.3 -0.3

usemtl _defaultMat (Instance) (Instance)
usemap _defaultMat (Instance) (Instance)
f 18/24/1 17/14/1 16/23/1
f 17/14/1 18/24/1 19/16/1
f 18/25/2 20/11/2 19/12/2
f 20/11/2 18/25/2 21/26/2
f 20/6/3 17/9/3 19/5/3
f 17/9/3 20/6/3 22/10/3
f 23/6/4 18/9/4 16/5/4
f 18/9/4 23/6/4 21/10/4
f 23/27/5 17/7/5 22/8/5
f 17/7/5 23/27/5 16/28/5
f 20/3/6 23/29/6 22/1/6
f 23/29/6 20/3/6 21/30/6
v 0.5 0 0.3
v 0.5 0 -0.3
v 0.3 0 -0.3
v 0.3 0.2 -0.3
v 0.5 0.2 -0.3
v 0.5 0.2 0.3
vt -0.5 -0.3
vt -0.5 0.3

usemtl _defaultMat (Instance) (Instance)
usemap _defaultMat (Instance) (Instance)
f 2/2/1 25/32/1 24/31/1
f 25/32/1 2/2/1 26/13/1
f 2/5/8 27/10/8 26/9/8
f 27/10/8 2/5/8 7/6/8
f 27/10/9 25/12/9 26/9/9
f 25/12/9 27/10/9 28/11/9
f 29/8/10 2/5/10 24/7/10
f 2/5/10 29/8/10 7/6/10
f 29/10/11 25/5/11 28/6/11
f 25/5/11 29/10/11 24/9/11
f 27/2/6 29/32/6 28/31/6
f 29/32/6 27/2/6 7/13/6
v -0.3 0 0.5000001
v -0.3 0 0.3
v -0.5000001 0 0.5000001
v -0.5000001 0 0.3
v -0.5000001 1 0.3
v -0.5000001 1 0.5000001
v -0.3 1 0.3
v -0.3 1 0.5000001
vn 0 -1 0
vn 0 1 0
vt 0.3 -0.5000001
vt 0.3 -0.3
vt 0.5000001 -0.5000001
vt 0.5000001 -0.3
vt 0.3 1
vt 0.5000001 0
vt 0.5000001 1
vt -0.5000001 0
vt -0.3 1
vt -0.5000001 1
vt 0.3 0.3
vt 0.3 0.5000001
vt 0.5000001 0.3
vt 0.5000001 0.5000001

usemtl _defaultMat (Instance) (Instance)
usemap _defaultMat (Instance) (Instance)
f 32/35/13 31/34/13 30/33/13
f 31/34/13 32/35/13 33/36/13
f 32/38/8 34/37/8 33/28/8
f 34/37/8 32/38/8 35/39/8
f 34/39/3 31/28/3 33/38/3
f 31/28/3 34/39/3 36/37/3
f 37/41/4 32/40/4 30/25/4
f 32/40/4 37/41/4 35/42/4
f 37/42/11 31/25/11 36/41/11
f 31/25/11 37/42/11 30/40/11
f 34/45/14 37/44/14 36/43/14
f 37/44/14 34/45/14 35/46/14
v 0.5 0 0.5
v 0.3 1 0.3
v 0.3 1 0.5
v 0.5 1 0.3
v 0.5 1 0.5
vt -0.5 -0.5
vt 0.3 1
vt 0.5 1
vt -0.3 1
vt -0.5 1
vt -0.5 0.5

usemtl _defaultMat (Instance) (Instance)
usemap _defaultMat (Instance) (Instance)
f 1/1/13 24/31/13 38/47/13
f 24/31/13 1/1/13 2/2/13
f 1/7/8 39/48/8 2/5/8
f 39/48/8 1/7/8 40/49/8
f 39/50/3 24/12/3 2/9/3
f 24/12/3 39/50/3 41/51/3
f 42/49/4 1/5/4 38/7/4
f 1/5/4 42/49/4 40/48/4
f 42/51/11 24/9/11 41/50/11
f 24/9/11 42/51/11 38/12/11
f 39/13/14 42/52/14 41/32/14
f 42/52/14 39/13/14 40/14/14
v -0.3 0 -0.3
v -0.3 0 -0.5
v -0.5 0 -0.3
v -0.5 0 -0.5
v -0.5 1 -0.5
v -0.5 1 -0.3
v -0.3 1 -0.5
v -0.3 1 -0.3
vt 0.3 0.5
vt 0.5 0.3
vt 0.5 0.5
vt 0.3 -0.5
vt 0.5 -0.5
vt 0.5 -0.3

usemtl _defaultMat (Instance) (Instance)
usemap _defaultMat (Instance) (Instance)
f 45/54/13 44/53/13 43/43/13
f 44/53/13 45/54/13 46/55/13
f 45/25/8 47/51/8 46/12/8
f 47/51/8 45/25/8 48/41/8
f 47/49/3 44/28/3 46/7/3
f 44/28/3 47/49/3 49/37/3
f 50/41/4 45/12/4 43/25/4
f 45/12/4 50/41/4 48/51/4
f 50/37/11 44/7/11 49/49/11
f 44/7/11 50/37/11 43/28/11
f 47/57/14 50/34/14 49/56/14
f 50/34/14 47/57/14 48/58/14
v 0.5000001 0.8 0.3
v 0.5000001 0.8 -0.2999999
v 0.3 0.8 0.3
v 0.3 0.8 -0.2999999
v 0.3 1 -0.2999999
v 0.3 1 0.3
v 0.5000001 1 -0.2999999
v 0.5000001 1 0.3
vt -0.5000001 -0.3
vt -0.5000001 0.2999999
vt -0.3 -0.3
vt -0.3 0.2999999
vt -0.2999999 0.8
vt -0.2999999 1
vt 0.3 0.8
vt 0.3 1
vt -0.3 0.8
vt -0.5000001 0.8
vt 0.5000001 0.8
vt 0.3 0.8
vt 0.2999999 1
vt 0.2999999 0.8
vt -0.3 1
vt -0.3 0.8
vt -0.5000001 -0.2999999
vt -0.5000001 0.3
vt -0.3 -0.2999999
vt -0.3 0.3

usemtl _defaultMat (Instance) (Instance)
usemap _defaultMat (Instance) (Instance)
f 53/61/1 52/60/1 51/59/1
f 52/60/1 53/61/1 54/62/1
f 53/65/8 55/64/8 54/63/8
f 55/64/8 53/65/8 56/66/8
f 55/41/9 52/68/9 54/67/9
f 52/68/9 55/41/9 57/42/9
f 58/39/10 53/70/10 51/69/10
f 53/70/10 58/39/10 56/37/10
f 58/73/11 52/72/11 57/71/11
f 52/72/11 58/73/11 51/74/11
f 55/77/6 58/76/6 57/75/6
f 58/76/6 55/77/6 56/78/6
v 0.4 0.8 0.5
v 0.4 0.8 0.3
v -0.4 0.8 0.5
v -0.4 0.8 0.3
v -0.4 0.9999999 0.3
v -0.4 0.9999999 0.5
v 0.4 0.9999999 0.3
v 0.4 0.9999999 0.5
vn -0.8 0 0
vn 0.8 0 0
vt -0.4 -0.5
vt -0.4 -0.3
vt 0.4 -0.5
vt 0.4 -0.3
vt 0.3 0.8
vt 0.3 0.9999999
vt 0.5 0.8
vt 0.5 0.9999999
vt 0.4 0.8
vt -0.4 0.8
vt 0.4 0.9999999
vt -0.4 0.9999999
vt -0.3 0.9999999
vt -0.3 0.8
vt -0.5 0.9999999
vt -0.5 0.8
vt -0.4 0.3
vt -0.4 0.5
vt 0.4 0.3
vt 0.4 0.5

usemtl _defaultMat (Instance) (Instance)
usemap _defaultMat (Instance) (Instance)
f 61/81/7 60/80/7 59/79/7
f 60/80/7 61/81/7 62/82/7
f 61/85/15 63/84/15 62/83/15
f 63/84/15 61/85/15 64/86/15
f 63/89/3 60/88/3 62/87/3
f 60/88/3 63/89/3 65/90/3
f 66/89/4 61/88/4 59/87/4
f 61/88/4 66/89/4 64/90/4
f 66/93/16 60/92/16 65/91/16
f 60/92/16 66/93/16 59/94/16
f 63/97/12 66/96/12 65/95/12
f 66/96/12 63/97/12 64/98/12
v 0.5000001 0 -0.3
v 0.5000001 0 -0.5
v 0.3 0 -0.3
v 0.3 0 -0.5
v 0.3 1 -0.5
v 0.3 1 -0.3
v 0.5000001 1 -0.5
v 0.5000001 1 -0.3
vt -0.5000001 0.3
vt -0.5000001 0.5
vt -0.3 0.3
vt -0.3 0.5
vt -0.5000001 -0.5
vt -0.5000001 -0.3
vt -0.3 -0.5
vt -0.3 -0.3

usemtl _defaultMat (Instance) (Instance)
usemap _defaultMat (Instance) (Instance)
f 69/101/13 68/100/13 67/99/13
f 68/100/13 69/101/13 70/102/13
f 69/9/8 71/51/8 70/12/8
f 71/51/8 69/9/8 72/50/8
f 71/41/3 68/40/3 70/25/3
f 68/40/3 71/41/3 73/42/3
f 74/39/4 69/28/4 67/38/4
f 69/28/4 74/39/4 72/37/4
f 74/48/11 68/7/11 73/49/11
f 68/7/11 74/48/11 67/5/11
f 71/105/14 74/104/14 73/103/14
f 74/104/14 71/105/14 72/106/14
v 0.4 0.8 -0.3
v 0.4 0.8 -0.5
v -0.4 0.8 -0.3
v -0.4 0.8 -0.5
v -0.4 0.9999999 -0.5
v -0.4 0.9999999 -0.3
v 0.4 0.9999999 -0.5
v 0.4 0.9999999 -0.3

usemtl _defaultMat (Instance) (Instance)
usemap _defaultMat (Instance) (Instance)
f 77/97/7 76/96/7 75/95/7
f 76/96/7 77/97/7 78/98/7
f 77/92/15 79/93/15 78/94/15
f 79/93/15 77/92/15 80/91/15
f 79/89/3 76/88/3 78/87/3
f 76/88/3 79/89/3 81/90/3
f 82/89/4 77/88/4 75/87/4
f 77/88/4 82/89/4 80/90/4
f 82/84/16 76/85/16 81/86/16
f 76/85/16 82/84/16 75/83/16
f 79/81/12 82/80/12 81/79/12
f 82/80/12 79/81/12 80/82/12
v -0.3 0.8 0.3
v -0.3 0.8 -0.3
v -0.5 0.8 0.3
v -0.5 0.8 -0.3
v -0.5 0.9999999 -0.3
v -0.5 0.9999999 0.3
v -0.3 0.9999999 -0.3
v -0.3 0.9999999 0.3
vt 0.3 -0.3
vt 0.3 0.3
vt 0.3 0.9999999
vt -0.3 0.9999999

usemtl _defaultMat (Instance) (Instance)
usemap _defaultMat (Instance) (Instance)
f 85/17/7 84/108/7 83/107/7
f 84/108/7 85/17/7 86/18/7
f 85/83/8 87/91/8 86/92/8
f 87/91/8 85/83/8 88/84/8
f 87/86/9 84/70/9 86/85/9
f 84/70/9 87/86/9 89/109/9
f 90/110/10 85/94/10 83/67/10
f 85/94/10 90/110/10 88/93/10
f 90/91/11 84/83/11 89/84/11
f 84/83/11 90/91/11 83/92/11
f 87/17/12 90/108/12 89/107/12
f 90/108/12 87/17/12 88/18/12
