# Blender v2.74 (sub 0) OBJ File: ''
# www.blender.org
mtllib hex_border.mtl
o Circle
v 3.548854 0.011154 1.806921
v 3.453628 0.366543 1.806921
v 3.193465 0.626705 1.806921
v 2.838077 0.721931 1.806921
v 2.482688 0.626705 1.806921
v 2.222526 0.366543 1.806921
v 2.127300 0.011154 1.806921
v 2.222526 -0.344234 1.806921
v 2.482688 -0.604397 1.806921
v 2.838077 -0.699623 1.806921
v 3.193465 -0.604397 1.806921
v 3.453628 -0.344234 1.806921
v 3.518450 0.011154 1.343045
v 3.424039 0.366543 1.355474
v 3.166102 0.626705 1.389432
v 2.813754 0.721931 1.435820
v 2.461406 0.626705 1.482208
v 2.203469 0.366543 1.516166
v 2.109057 0.011154 1.528595
v 2.203469 -0.344234 1.516166
v 2.461406 -0.604397 1.482208
v 2.813754 -0.699623 1.435820
v 3.166102 -0.604397 1.389432
v 3.424039 -0.344234 1.355474
v 3.427758 0.011154 0.887108
v 3.335777 0.366543 0.911754
v 3.084480 0.626705 0.979089
v 2.741200 0.721931 1.071070
v 2.397921 0.626705 1.163052
v 2.146623 0.366543 1.230387
v 2.054643 0.011154 1.255033
v 2.146623 -0.344234 1.230387
v 2.397921 -0.604397 1.163052
v 2.741200 -0.699623 1.071070
v 3.084480 -0.604397 0.979089
v 3.335777 -0.344234 0.911754
v 3.278331 0.011154 0.446909
v 3.190354 0.366543 0.483350
v 2.949994 0.626705 0.582910
v 2.621658 0.721931 0.718911
v 2.293322 0.626705 0.854912
v 2.052963 0.366543 0.954472
v 1.964986 0.011154 0.990913
v 2.052963 -0.344234 0.954472
v 2.293322 -0.604397 0.854912
v 2.621658 -0.699623 0.718911
v 2.949994 -0.604397 0.582910
v 3.190354 -0.344234 0.483350
v 3.072724 0.011154 0.029978
v 2.990256 0.366543 0.077591
v 2.764949 0.626705 0.207673
v 2.457173 0.721931 0.385367
v 2.149398 0.626705 0.563061
v 1.924090 0.366543 0.693142
v 1.841622 0.011154 0.740755
v 1.924090 -0.344234 0.693142
v 2.149398 -0.604397 0.563061
v 2.457173 -0.699623 0.385367
v 2.764949 -0.604397 0.207673
v 2.990256 -0.344234 0.077591
v 2.814455 0.011154 -0.356548
v 2.738908 0.366543 -0.298578
v 2.532506 0.626705 -0.140201
v 2.250558 0.721931 0.076146
v 1.968609 0.626705 0.292493
v 1.762208 0.366543 0.450869
v 1.686661 0.011154 0.508839
v 1.762208 -0.344234 0.450870
v 1.968609 -0.604397 0.292493
v 2.250558 -0.699623 0.076146
v 2.532506 -0.604397 -0.140201
v 2.738908 -0.344234 -0.298578
v 2.507945 0.011154 -0.706055
v 2.440611 0.366543 -0.638720
v 2.256648 0.626705 -0.454758
v 2.005350 0.721931 -0.203460
v 1.754052 0.626705 0.047838
v 1.570089 0.366543 0.231800
v 1.502755 0.011154 0.299135
v 1.570089 -0.344234 0.231800
v 1.754052 -0.604397 0.047837
v 2.005350 -0.699623 -0.203460
v 2.256648 -0.604397 -0.454758
v 2.440611 -0.344234 -0.638720
v 2.158438 0.011154 -1.012565
v 2.100468 0.366543 -0.937017
v 1.942091 0.626705 -0.730617
v 1.725744 0.721931 -0.448668
v 1.509397 0.626705 -0.166720
v 1.351020 0.366543 0.039681
v 1.293050 0.011154 0.115229
v 1.351020 -0.344234 0.039681
v 1.509397 -0.604397 -0.166720
v 1.725744 -0.699623 -0.448668
v 1.942091 -0.604397 -0.730617
v 2.100468 -0.344234 -0.937017
v 1.771911 0.011154 -1.270834
v 1.724298 0.366543 -1.188366
v 1.594217 0.626705 -0.963059
v 1.416523 0.721931 -0.655284
v 1.238828 0.626705 -0.347508
v 1.108747 0.366543 -0.122201
v 1.061134 0.011154 -0.039733
v 1.108747 -0.344234 -0.122201
v 1.238828 -0.604397 -0.347508
v 1.416523 -0.699623 -0.655284
v 1.594217 -0.604397 -0.963059
v 1.724298 -0.344234 -1.188366
v 1.354982 0.011154 -1.476441
v 1.318540 0.366543 -1.388464
v 1.218981 0.626705 -1.148105
v 1.082979 0.721931 -0.819769
v 0.946978 0.626705 -0.491433
v 0.847418 0.366543 -0.251074
v 0.810977 0.011154 -0.163097
v 0.847418 -0.344234 -0.251074
v 0.946978 -0.604397 -0.491433
v 1.082979 -0.699623 -0.819769
v 1.218981 -0.604397 -1.148105
v 1.318540 -0.344234 -1.388463
v 0.914783 0.011154 -1.625869
v 0.890136 0.366543 -1.533888
v 0.822801 0.626705 -1.282590
v 0.730820 0.721931 -0.939311
v 0.638838 0.626705 -0.596032
v 0.571504 0.366543 -0.344735
v 0.546857 0.011154 -0.252753
v 0.571504 -0.344234 -0.344735
v 0.638838 -0.604397 -0.596032
v 0.730820 -0.699623 -0.939311
v 0.822801 -0.604397 -1.282590
v 0.890136 -0.344234 -1.533887
v 0.458846 0.011154 -1.716560
v 0.446416 0.366543 -1.622149
v 0.412458 0.626705 -1.364212
v 0.366070 0.721931 -1.011864
v 0.319683 0.626705 -0.659516
v 0.285725 0.366543 -0.401579
v 0.273295 0.011154 -0.307168
v 0.285725 -0.344234 -0.401579
v 0.319683 -0.604397 -0.659516
v 0.366070 -0.699623 -1.011864
v 0.412458 -0.604397 -1.364212
v 0.446416 -0.344234 -1.622149
v -0.005032 0.011154 -1.746965
v -0.005032 0.366543 -1.651739
v -0.005032 0.626705 -1.391576
v -0.005032 0.721931 -1.036188
v -0.005032 0.626705 -0.680799
v -0.005032 0.366543 -0.420637
v -0.005032 0.011154 -0.325411
v -0.005032 -0.344234 -0.420637
v -0.005032 -0.604397 -0.680799
v -0.005032 -0.699623 -1.036188
v -0.005032 -0.604397 -1.391576
v -0.005032 -0.344234 -1.651739
vn 0.964000 0.258300 -0.063200
vn 0.706300 0.706300 -0.046300
vn 0.258800 0.965800 -0.017000
vn -0.258800 0.965800 0.017000
vn -0.706300 0.706300 0.046300
vn -0.964000 0.258300 0.063200
vn -0.964000 -0.258300 0.063200
vn -0.706300 -0.706300 0.046300
vn -0.258800 -0.965800 0.017000
vn 0.258800 -0.965800 -0.017000
vn 0.706300 -0.706300 -0.046300
vn 0.964000 -0.258300 -0.063200
vn 0.947500 0.258300 -0.188500
vn 0.694300 0.706300 -0.138100
vn 0.254400 0.965800 -0.050600
vn -0.254400 0.965800 0.050600
vn -0.694300 0.706300 0.138100
vn -0.947500 0.258300 0.188500
vn -0.947500 -0.258300 0.188500
vn -0.694300 -0.706300 0.138100
vn -0.254400 -0.965800 0.050600
vn 0.254400 -0.965800 -0.050600
vn 0.694300 -0.706300 -0.138100
vn 0.947500 -0.258300 -0.188500
vn 0.914800 0.258300 -0.310500
vn 0.670300 0.706300 -0.227500
vn 0.245600 0.965800 -0.083400
vn -0.245600 0.965800 0.083400
vn -0.670300 0.706300 0.227500
vn -0.914800 0.258300 0.310500
vn -0.914800 -0.258300 0.310500
vn -0.670300 -0.706300 0.227500
vn -0.245600 -0.965800 0.083400
vn 0.245600 -0.965800 -0.083400
vn 0.670300 -0.706300 -0.227500
vn 0.914800 -0.258300 -0.310500
vn 0.866400 0.258300 -0.427300
vn 0.634900 0.706300 -0.313100
vn 0.232600 0.965800 -0.114700
vn -0.232600 0.965800 0.114700
vn -0.634900 0.706300 0.313100
vn -0.866400 0.258300 0.427300
vn -0.866400 -0.258300 0.427300
vn -0.634900 -0.706300 0.313100
vn -0.232600 -0.965800 0.114700
vn 0.232600 -0.965800 -0.114700
vn 0.634900 -0.706300 -0.313100
vn 0.866400 -0.258300 -0.427300
vn 0.803300 0.258300 -0.536700
vn 0.588600 0.706300 -0.393300
vn 0.215600 0.965800 -0.144100
vn -0.215600 0.965800 0.144100
vn -0.588600 0.706300 0.393300
vn -0.803300 0.258300 0.536700
vn -0.803300 -0.258300 0.536700
vn -0.588600 -0.706300 0.393300
vn -0.215600 -0.965800 0.144100
vn 0.215600 -0.965800 -0.144100
vn 0.588600 -0.706300 -0.393300
vn 0.803300 -0.258300 -0.536700
vn 0.726300 0.258300 -0.637000
vn 0.532200 0.706300 -0.466700
vn 0.195000 0.965800 -0.171000
vn -0.195000 0.965800 0.171000
vn -0.532200 0.706300 0.466700
vn -0.726300 0.258300 0.637000
vn -0.726300 -0.258300 0.637000
vn -0.532200 -0.706300 0.466700
vn -0.195000 -0.965800 0.171000
vn 0.195000 -0.965800 -0.171000
vn 0.532200 -0.706300 -0.466700
vn 0.726300 -0.258300 -0.637000
vn 0.637000 0.258300 -0.726300
vn 0.466700 0.706300 -0.532200
vn 0.171000 0.965800 -0.195000
vn -0.171000 0.965800 0.195000
vn -0.466700 0.706300 0.532200
vn -0.637000 0.258300 0.726300
vn -0.637000 -0.258300 0.726300
vn -0.466700 -0.706300 0.532200
vn -0.171000 -0.965800 0.195000
vn 0.171000 -0.965800 -0.195000
vn 0.466700 -0.706300 -0.532200
vn 0.637000 -0.258300 -0.726300
vn 0.536700 0.258300 -0.803300
vn 0.393300 0.706300 -0.588600
vn 0.144100 0.965800 -0.215600
vn -0.144100 0.965800 0.215600
vn -0.393300 0.706300 0.588600
vn -0.536700 0.258300 0.803300
vn -0.536700 -0.258300 0.803300
vn -0.393300 -0.706300 0.588600
vn -0.144100 -0.965800 0.215600
vn 0.144100 -0.965800 -0.215600
vn 0.393300 -0.706300 -0.588600
vn 0.536700 -0.258300 -0.803300
vn 0.427300 0.258300 -0.866400
vn 0.313100 0.706300 -0.634900
vn 0.114700 0.965800 -0.232600
vn -0.114700 0.965800 0.232600
vn -0.313100 0.706300 0.634900
vn -0.427300 0.258300 0.866400
vn -0.427300 -0.258300 0.866400
vn -0.313100 -0.706300 0.634900
vn -0.114700 -0.965800 0.232600
vn 0.114700 -0.965800 -0.232600
vn 0.313100 -0.706300 -0.634900
vn 0.427300 -0.258300 -0.866400
vn 0.310500 0.258300 -0.914800
vn 0.227500 0.706300 -0.670300
vn 0.083400 0.965800 -0.245600
vn -0.083400 0.965800 0.245600
vn -0.227500 0.706300 0.670300
vn -0.310500 0.258300 0.914800
vn -0.310500 -0.258300 0.914800
vn -0.227500 -0.706300 0.670300
vn -0.083400 -0.965800 0.245600
vn 0.083400 -0.965800 -0.245600
vn 0.227500 -0.706300 -0.670300
vn 0.310500 -0.258300 -0.914800
vn 0.188500 0.258300 -0.947500
vn 0.138100 0.706300 -0.694300
vn 0.050600 0.965800 -0.254400
vn -0.050600 0.965800 0.254400
vn -0.138100 0.706300 0.694300
vn -0.188500 0.258300 0.947500
vn -0.188500 -0.258300 0.947500
vn -0.138100 -0.706300 0.694300
vn -0.050600 -0.965800 0.254400
vn 0.050600 -0.965800 -0.254400
vn 0.138100 -0.706300 -0.694300
vn 0.188500 -0.258300 -0.947500
vn 0.063200 0.258300 -0.964000
vn 0.046300 0.706300 -0.706300
vn 0.017000 0.965800 -0.258800
vn -0.017000 0.965800 0.258800
vn -0.046300 0.706300 0.706300
vn -0.063200 0.258300 0.964000
vn -0.063200 -0.258300 0.964000
vn -0.046300 -0.706300 0.706300
vn -0.017000 -0.965800 0.258800
vn 0.017000 -0.965800 -0.258800
vn 0.046300 -0.706300 -0.706300
vn 0.063200 -0.258300 -0.964000
usemtl None
s off
f 1//1 13//1 14//1 2//1
f 2//2 14//2 15//2 3//2
f 3//3 15//3 16//3 4//3
f 4//4 16//4 17//4 5//4
f 5//5 17//5 18//5 6//5
f 6//6 18//6 19//6 7//6
f 7//7 19//7 20//7 8//7
f 8//8 20//8 21//8 9//8
f 9//9 21//9 22//9 10//9
f 10//10 22//10 23//10 11//10
f 11//11 23//11 24//11 12//11
f 12//12 24//12 13//12 1//12
f 13//13 25//13 26//13 14//13
f 14//14 26//14 27//14 15//14
f 15//15 27//15 28//15 16//15
f 16//16 28//16 29//16 17//16
f 17//17 29//17 30//17 18//17
f 18//18 30//18 31//18 19//18
f 19//19 31//19 32//19 20//19
f 20//20 32//20 33//20 21//20
f 21//21 33//21 34//21 22//21
f 22//22 34//22 35//22 23//22
f 23//23 35//23 36//23 24//23
f 24//24 36//24 25//24 13//24
f 25//25 37//25 38//25 26//25
f 26//26 38//26 39//26 27//26
f 27//27 39//27 40//27 28//27
f 28//28 40//28 41//28 29//28
f 29//29 41//29 42//29 30//29
f 30//30 42//30 43//30 31//30
f 31//31 43//31 44//31 32//31
f 32//32 44//32 45//32 33//32
f 33//33 45//33 46//33 34//33
f 34//34 46//34 47//34 35//34
f 35//35 47//35 48//35 36//35
f 36//36 48//36 37//36 25//36
f 37//37 49//37 50//37 38//37
f 38//38 50//38 51//38 39//38
f 39//39 51//39 52//39 40//39
f 40//40 52//40 53//40 41//40
f 41//41 53//41 54//41 42//41
f 42//42 54//42 55//42 43//42
f 43//43 55//43 56//43 44//43
f 44//44 56//44 57//44 45//44
f 45//45 57//45 58//45 46//45
f 46//46 58//46 59//46 47//46
f 47//47 59//47 60//47 48//47
f 48//48 60//48 49//48 37//48
f 49//49 61//49 62//49 50//49
f 50//50 62//50 63//50 51//50
f 51//51 63//51 64//51 52//51
f 52//52 64//52 65//52 53//52
f 53//53 65//53 66//53 54//53
f 54//54 66//54 67//54 55//54
f 55//55 67//55 68//55 56//55
f 56//56 68//56 69//56 57//56
f 57//57 69//57 70//57 58//57
f 58//58 70//58 71//58 59//58
f 59//59 71//59 72//59 60//59
f 60//60 72//60 61//60 49//60
f 61//61 73//61 74//61 62//61
f 62//62 74//62 75//62 63//62
f 63//63 75//63 76//63 64//63
f 64//64 76//64 77//64 65//64
f 65//65 77//65 78//65 66//65
f 66//66 78//66 79//66 67//66
f 67//67 79//67 80//67 68//67
f 68//68 80//68 81//68 69//68
f 69//69 81//69 82//69 70//69
f 70//70 82//70 83//70 71//70
f 71//71 83//71 84//71 72//71
f 72//72 84//72 73//72 61//72
f 73//73 85//73 86//73 74//73
f 74//74 86//74 87//74 75//74
f 75//75 87//75 88//75 76//75
f 76//76 88//76 89//76 77//76
f 77//77 89//77 90//77 78//77
f 78//78 90//78 91//78 79//78
f 79//79 91//79 92//79 80//79
f 80//80 92//80 93//80 81//80
f 81//81 93//81 94//81 82//81
f 82//82 94//82 95//82 83//82
f 83//83 95//83 96//83 84//83
f 84//84 96//84 85//84 73//84
f 85//85 97//85 98//85 86//85
f 86//86 98//86 99//86 87//86
f 87//87 99//87 100//87 88//87
f 88//88 100//88 101//88 89//88
f 89//89 101//89 102//89 90//89
f 90//90 102//90 103//90 91//90
f 91//91 103//91 104//91 92//91
f 92//92 104//92 105//92 93//92
f 93//93 105//93 106//93 94//93
f 94//94 106//94 107//94 95//94
f 95//95 107//95 108//95 96//95
f 96//96 108//96 97//96 85//96
f 97//97 109//97 110//97 98//97
f 98//98 110//98 111//98 99//98
f 99//99 111//99 112//99 100//99
f 100//100 112//100 113//100 101//100
f 101//101 113//101 114//101 102//101
f 102//102 114//102 115//102 103//102
f 103//103 115//103 116//103 104//103
f 104//104 116//104 117//104 105//104
f 105//105 117//105 118//105 106//105
f 106//106 118//106 119//106 107//106
f 107//107 119//107 120//107 108//107
f 108//108 120//108 109//108 97//108
f 109//109 121//109 122//109 110//109
f 110//110 122//110 123//110 111//110
f 111//111 123//111 124//111 112//111
f 112//112 124//112 125//112 113//112
f 113//113 125//113 126//113 114//113
f 114//114 126//114 127//114 115//114
f 115//115 127//115 128//115 116//115
f 116//116 128//116 129//116 117//116
f 117//117 129//117 130//117 118//117
f 118//118 130//118 131//118 119//118
f 119//119 131//119 132//119 120//119
f 120//120 132//120 121//120 109//120
f 121//121 133//121 134//121 122//121
f 122//122 134//122 135//122 123//122
f 123//123 135//123 136//123 124//123
f 124//124 136//124 137//124 125//124
f 125//125 137//125 138//125 126//125
f 126//126 138//126 139//126 127//126
f 127//127 139//127 140//127 128//127
f 128//128 140//128 141//128 129//128
f 129//129 141//129 142//129 130//129
f 130//130 142//130 143//130 131//130
f 131//131 143//131 144//131 132//131
f 132//132 144//132 133//132 121//132
f 133//133 145//133 146//133 134//133
f 134//134 146//134 147//134 135//134
f 135//135 147//135 148//135 136//135
f 136//136 148//136 149//136 137//136
f 137//137 149//137 150//137 138//137
f 138//138 150//138 151//138 139//138
f 139//139 151//139 152//139 140//139
f 140//140 152//140 153//140 141//140
f 141//141 153//141 154//141 142//141
f 142//142 154//142 155//142 143//142
f 143//143 155//143 156//143 144//143
f 144//144 156//144 145//144 133//144
