# Blender v2.79 (sub 0) OBJ File: 'ring_cube.blend'
# www.blender.org
mtllib ring_cube.mtl
o Cube
v -0.092123 0.147000 -0.049341
v -0.092123 0.105000 -0.049341
v -0.134123 0.105000 -0.049341
v -0.134123 0.147000 -0.049341
v -0.092123 0.147000 0.051459
v -0.092123 0.105000 0.051459
v -0.134123 0.105000 0.051459
v -0.134123 0.147000 0.051459
v 0.117877 0.147000 -0.049341
v 0.117877 0.105000 -0.049341
v 0.117877 0.147000 0.051459
v 0.117877 0.105000 0.051459
v 0.117877 0.105000 -0.049341
v 0.117877 0.105000 0.051459
v 0.159877 0.147000 -0.049341
v 0.159877 0.105000 -0.049341
v 0.159877 0.147000 0.051459
v 0.159877 0.105000 0.051459
v -0.092123 -0.105000 -0.049341
v -0.134123 -0.105000 -0.049341
v -0.092123 -0.105000 0.051459
v -0.134123 -0.105000 0.051459
v 0.117877 -0.105000 -0.049341
v 0.117877 -0.105000 0.051459
v 0.159877 -0.105000 -0.049341
v 0.159877 -0.105000 0.051459
v 0.117877 -0.147000 -0.049341
v 0.117877 -0.147000 0.051459
v 0.159877 -0.147000 -0.049341
v 0.159877 -0.147000 0.051459
v -0.092123 -0.147000 -0.049341
v -0.134123 -0.147000 -0.049341
v -0.092123 -0.147000 0.051459
v -0.134123 -0.147000 0.051459
v 0.117877 -0.105000 -0.049341
v 0.117877 -0.105000 0.051459
vn 0.0000 0.0000 -1.0000
vn -0.0000 0.0000 1.0000
vn -1.0000 0.0000 -0.0000
vn 0.0000 1.0000 -0.0000
vn -0.0000 -1.0000 0.0000
vn 1.0000 -0.0000 0.0000
usemtl Material
s off
f 1//1 2//1 3//1 4//1
f 5//2 8//2 7//2 6//2
f 5//2 6//2 12//2 11//2
f 6//2 7//2 22//2 21//2
f 3//3 7//3 8//3 4//3
f 5//4 1//4 4//4 8//4
f 6//5 2//5 10//5 12//5
f 1//4 5//4 11//4 9//4
f 2//1 1//1 9//1 10//1
f 9//4 11//4 17//4 15//4
f 12//2 10//2 13//2 14//2
f 13//1 9//1 15//1 16//1
f 15//6 17//6 18//6 16//6
f 13//1 16//1 25//1 23//1
f 10//2 9//2 13//2
f 21//2 22//2 34//2 33//2
f 7//3 3//3 20//3 22//3
f 2//6 6//6 21//6 19//6
f 3//1 2//1 19//1 20//1
f 23//1 25//1 29//1 27//1
f 18//2 14//2 24//2 26//2
f 16//6 18//6 26//6 25//6
f 14//3 13//3 23//3 24//3
f 28//5 27//5 29//5 30//5
f 26//2 24//2 28//2 30//2
f 25//6 26//6 30//6 29//6
f 24//3 23//3 27//3 28//3
f 31//5 33//5 34//5 32//5
f 22//3 20//3 32//3 34//3
f 20//1 19//1 31//1 32//1
f 33//5 31//5 27//5 28//5
f 35//6 36//6 28//6 27//6
f 31//1 19//1 35//1 27//1
f 19//4 21//4 36//4 35//4
f 11//2 14//2 18//2 17//2
f 21//2 33//2 28//2 36//2
f 11//2 12//2 14//2
