# Made using Asset Forge (www.assetforge.io) version 1.3 

mtllib rounded_cube.mtl 

g block_rounded_1

v 0.225 0.025 0.3
v -0.225 0.025 0.3
v 0.225 0.175 0.3
v -0.225 0.175 0.3
v 0.3 0.175 -0.225
v 0.3 0.025 -0.225
v 0.3 0.175 0.225
v 0.3 0.025 0.225
v 0.225 0.2 -0.225
v 0.225 0.2 0.225
v -0.225 0.2 -0.225
v -0.225 0.2 0.225
v -0.225 0.025 -0.3
v 0.225 0.025 -0.3
v -0.225 0.175 -0.3
v 0.225 0.175 -0.3
v 0.225 1.804778E-17 0.225
v 0.225 1.804778E-17 -0.225
v -0.225 1.804778E-17 0.225
v -0.225 1.804778E-17 -0.225
v -0.3 0.025 -0.225
v -0.3 0.175 -0.225
v -0.3 0.025 0.225
v -0.3 0.175 0.225
vn 0 0 0.6
vn 0.6 0 0
vn 0 0.2 0
vn 0 0 -0.6
vn 0 -0.2 0
vn -0.6 0 0
vn 0.3464102 0.11547 -0.3464102
vn 0.4242641 0 -0.4242641
vn 0 -0.1414213 -0.4242641
vn 0.3464102 -0.11547 -0.3464102
vn 0.4242641 -0.1414213 0
vn 0.4242642 0.1414213 0
vn 0.3464102 0.11547 0.3464102
vn 0.4242641 0 0.4242641
vn 0.3464102 -0.11547 0.3464102
vn 0 0.1414213 0.4242642
vn -0.3464102 0.11547 0.3464102
vn -0.4242641 -0.1414213 0
vn 0 -0.1414213 0.4242641
vn -0.4242641 0 0.4242641
vn -0.3464102 -0.11547 0.3464102
vn -0.3464102 -0.11547 -0.3464102
vn -0.4242641 0 -0.4242641
vn -0.4242642 0.1414213 0
vn 0 0.1414213 -0.4242642
vn -0.3464102 0.11547 -0.3464102
vt 0.225 0.025
vt -0.225 0.025
vt 0.225 0.175
vt -0.225 0.175
vt -0.225 -0.225
vt -0.225 0.225
vt 0.225 -0.225
vt 0.225 0.225
vt -0.225 -0.3
vt -0.3 -0.225
vt -0.3 0.025
vt -0.3 0.175
vt -0.225 0.3
vt 0.225 0.3
vt -0.3 0.225
vt 0.3 0.025
vt 0.3 0.175
vt 0.3 0.225
vt 0.3 -0.225
vt 0.225 -0.3

usemtl _defaultMat (Instance)
usemap _defaultMat (Instance)
f 3/3/1 2/2/1 1/1/1
f 2/2/1 3/3/1 4/4/1
f 7/4/2 6/1/2 5/3/2
f 6/1/2 7/4/2 8/2/2
f 11/7/3 10/6/3 9/5/3
f 10/6/3 11/7/3 12/8/3
f 15/3/4 14/2/4 13/1/4
f 14/2/4 15/3/4 16/4/4
f 19/7/5 18/6/5 17/5/5
f 18/6/5 19/7/5 20/8/5
f 23/1/6 22/4/6 21/2/6
f 22/4/6 23/1/6 24/3/6
f 9/5/7 5/10/7 16/9/7
f 16/4/8 6/11/8 14/2/8
f 6/11/8 16/4/8 5/12/8
f 20/8/9 14/13/9 18/6/9
f 14/13/9 20/8/9 13/14/9
f 14/13/10 6/15/10 18/6/10
f 17/5/11 6/15/11 8/10/11
f 6/15/11 17/5/11 18/6/11
f 9/5/12 7/15/12 5/10/12
f 7/15/12 9/5/12 10/6/12
f 10/6/13 3/13/13 7/15/13
f 7/17/14 1/1/14 8/16/14
f 1/1/14 7/17/14 3/3/14
f 1/9/15 17/5/15 8/10/15
f 10/6/16 4/14/16 3/13/16
f 4/14/16 10/6/16 12/8/16
f 4/14/17 12/8/17 24/18/17
f 19/7/18 21/18/18 20/8/18
f 21/18/18 19/7/18 23/19/18
f 1/9/19 19/7/19 17/5/19
f 19/7/19 1/9/19 2/20/19
f 2/2/20 24/12/20 23/11/20
f 24/12/20 2/2/20 4/4/20
f 2/20/21 23/19/21 19/7/21
f 21/18/22 13/14/22 20/8/22
f 21/16/23 15/3/23 13/1/23
f 15/3/23 21/16/23 22/17/23
f 24/18/24 11/7/24 22/19/24
f 11/7/24 24/18/24 12/8/24
f 15/20/25 9/5/25 16/9/25
f 9/5/25 15/20/25 11/7/25
f 11/7/26 15/20/26 22/19/26
