# Made using Asset Forge (www.assetforge.io) version 1.3 

mtllib simple_walker.mtl 

g Hull14_0

v -0.09999997 0.082016 -0.2704104
v -0.09999997 0.098425 -0.2704104
v -0.09999997 0.098425 -0.1876344
v -0.09999997 0.054992 -0.1876344
v 0.16662 0.082792 -0.1337051
v 0.1784477 0.046708 2.980232E-08
v -0.09999997 0.141859 -0.1876344
v -0.09999997 0.114835 -0.2704104
v 0.16662 0.114058 -0.1337051
v 0.1784477 0.150142 2.980232E-08
v 0.4268097 0.083553 5.960464E-08
v 0.4268097 0.113297 5.960464E-08
v -0.1 0.082016 0.2704104
v -0.1 0.054992 0.1876344
v -0.1 0.098425 0.1876344
v -0.1 0.098425 0.2704104
v 0.16662 0.082792 0.1337052
v -0.1 0.141859 0.1876344
v 0.16662 0.114058 0.1337052
v -0.1 0.114835 0.2704104
v -0.1 0.098425 0
v -0.1 -0.00426 0
v -0.1 0.20111 0
v -0.09999997 0.098425 -0.2955414
v 0.16662 0.098425 -0.1590744
v 0.4766645 0.098425 5.960464E-08
v 0.16662 0.098425 0.1590744
v -0.1 0.098425 0.2955414
vn -0.4000001 0.0013 0.004199952
vn -0.4000001 0 -5.960464E-08
vn -0.4000001 0.0061 -0.0003600717
vn 0.02492002 -0.9823 -0.10614
vn 0.02828002 -0.9824 -0.10386
vn 0.02628002 -0.9809 -0.10986
vn 0.02592002 -0.9821 -0.10626
vn 0.02628002 0.9809 -0.1098
vn 0.02696002 0.983 -0.1023
vn 0.02584002 0.9825 -0.1047
vn 0.02592002 0.982 -0.10644
vn 0.02372002 -0.9845 -0.09887999
vn 0.02336002 -0.9842 -0.10026
vn 0.02212002 -0.9842 -0.10086
vn -0.4000001 -0.0062 0.002099931
vn -0.4000001 -0.0061 -0.0003600717
vn 0.02348002 0.9842 -0.10032
vn 0.02428002 0.9843 -0.09959999
vn 0.02208002 0.9844 -0.10026
vn -0.4000001 0.0047 -0.003240049
vn -0.4000001 0.0057 0.001379937
vn 0.02583999 -0.9825 0.10476
vn 0.02591999 -0.9821 0.10626
vn 0.02719999 -0.9809 0.10932
vn 0.02751999 -0.9828 0.10278
vn 0.02835999 0.9815 0.10668
vn 0.02579999 0.982 0.10632
vn 0.02491999 0.9823 0.10614
vn 0.02751999 0.9828 0.10278
vn 0.02427999 -0.9843 0.09959999
vn 0.02203999 -0.9844 0.10032
vn 0.02335999 -0.9842 0.10026
vn -0.4000001 -0.0033 0.003059953
vn -0.4000001 -0.0047 -0.003240049
vn 0.02335999 0.9841 0.1005
vn 0.02215999 0.9842 0.10092
vn 0.02371999 0.9846 0.09882
vn -0.4000001 -0.0004 0.003659934
vn 0.03084002 -0.9801 -0.10962
vn 0.02872002 -0.98 -0.11142
vn -0.4000001 0.0004 0.003659934
vn 0.02872002 0.98 -0.11142
vn 0.03084002 0.9801 -0.10968
vn 0.02856002 0.98 -0.11148
vn -0.4000001 0.0018 -0.003540069
vn 0.03051999 -0.9804 0.10896
vn 0.02871999 -0.98 0.11142
vn -0.4000001 -0.0054 -0.001680046
vn 0.02871999 0.98 0.11142
vn 0.02855999 0.98 0.11142
vn 0.02947999 0.9809 0.108
vn 0.05124004 0.9263 -0.21264
vn 0.05196004 0.9276 -0.21012
vn 0.04816004 0.9281 -0.21138
vn 0.04752004 0.9275 -0.21258
vn 0.04956004 -0.925 -0.21552
vn 0.04820004 -0.9269 -0.2133
vn 0.04800004 -0.928 -0.21168
vn 0.04844004 -0.9309 -0.2067
vn 0.04708004 -0.9348 -0.20112
vn 0.04736004 -0.9346 -0.2013
vn 0.04608004 -0.9351 -0.20106
vn 0.04628004 -0.9354 -0.20046
vn -0.4000001 0.0069 -0.001080066
vn -0.4000001 0 0.005579948
vn -0.4000001 0.0034 0.005219936
vn 0.04488004 0.9351 -0.20166
vn 0.04628004 0.9342 -0.20244
vn 0.04640004 0.9353 -0.20058
vn 0.04608004 0.9351 -0.20106
vn 0.05079998 0.9256 0.21402
vn 0.04819998 0.9269 0.2133
vn 0.04799998 0.9277 0.21216
vn 0.05015998 0.9301 0.20718
vn 0.05079998 -0.9256 0.21402
vn 0.05103998 -0.9293 0.20802
vn 0.04847998 -0.9281 0.2112
vn 0.04755998 -0.9275 0.21258
vn 0.04627998 -0.9342 0.20244
vn 0.04651998 -0.9351 0.20082
vn 0.04607998 -0.9351 0.20106
vn 0.04491998 -0.9349 0.20196
vn -0.4000001 0.0058 0.002519935
vn -0.4000001 -0.0021 -0.005460054
vn -0.4000001 0.0013 -0.005520046
vn -0.4000001 -0.0058 0.002519935
vn 0.04735998 0.9347 0.20106
vn 0.04607998 0.9351 0.20106
vn 0.04607998 0.9355 0.2004
vn 0.04711998 0.9348 0.20112
vt -0.2704104 0.082016
vt -0.2704104 0.098425
vt -0.1876344 0.098425
vt -0.1876344 0.054992
vt -0.1666201 0.1337052
vt 0.09999997 0.2704104
vt 0.09999998 0.1876344
vt -0.1784477 -3.319354E-08
vt 0.09999998 -0.1876344
vt 0.09999997 -0.2704104
vt -0.1666201 -0.1337052
vt -0.1784477 3.319354E-08
vt -0.4268097 -6.28006E-08
vt -0.2704104 0.114835
vt -0.1876344 0.141859
vt -0.4268097 6.28006E-08
vt 0.2704104 0.082016
vt 0.1876344 0.054992
vt 0.1876344 0.098425
vt 0.2704104 0.098425
vt -0.16662 -0.1337052
vt 0.1 -0.1876344
vt 0.1 -0.2704104
vt 0.1 0.1876344
vt -0.16662 0.1337052
vt 0.1 0.2704104
vt 0.1876344 0.141859
vt 0.2704104 0.114835
vt 0 0.098425
vt 0 -0.00426
vt 0.1 0
vt 0 0.20111
vt 0.09999996 -0.2955414
vt -0.1666201 -0.1590744
vt -0.1666201 0.1590744
vt 0.09999996 0.2955414
vt -0.4766645 -6.874376E-08
vt -0.2955414 0.098425
vt -0.4766645 6.874376E-08
vt -0.16662 0.1590744
vt 0.1 0.2955414
vt 0.1 -0.2955414
vt -0.16662 -0.1590744
vt 0.2955414 0.098425

usemtl _defaultMat (Instance)
usemap _defaultMat (Instance)
f 3/3/2 2/2/2 1/1/1
f 1/1/1 4/4/3 3/3/2
f 4/7/6 1/6/5 5/5/4
f 5/5/4 6/8/7 4/7/6
f 9/11/10 8/10/9 7/9/8
f 7/9/8 10/12/11 9/11/10
f 11/13/14 6/8/13 5/5/12
f 7/15/16 8/14/15 2/2/2
f 2/2/2 3/3/2 7/15/16
f 12/16/19 9/11/18 10/12/17
f 15/19/2 14/18/21 13/17/20
f 13/17/20 16/20/2 15/19/2
f 14/22/24 6/8/23 17/21/22
f 17/21/22 13/23/25 14/22/24
f 19/25/28 10/12/27 18/24/26
f 18/24/26 20/26/29 19/25/28
f 6/8/32 11/13/31 17/21/30
f 18/27/33 15/19/2 16/20/2
f 16/20/2 20/28/34 18/27/33
f 19/25/37 12/16/36 10/12/35

usemtl black (Instance)
usemap black (Instance)
f 21/29/2 3/3/2 4/4/38
f 4/4/38 22/30/2 21/29/2
f 6/8/40 22/31/40 4/7/39
f 23/32/2 7/15/41 3/3/2
f 3/3/2 21/29/2 23/32/2
f 10/12/44 7/9/43 23/31/42
f 21/29/2 22/30/2 14/18/45
f 14/18/45 15/19/2 21/29/2
f 22/31/47 6/8/47 14/22/46
f 23/32/2 21/29/2 15/19/2
f 15/19/2 18/27/48 23/32/2
f 18/24/51 10/12/50 23/31/49

usemtl blueSteel (Instance)
usemap blueSteel (Instance)
f 25/34/54 24/33/53 8/10/52
f 8/10/52 9/11/55 25/34/54
f 25/35/58 5/5/57 1/6/56
f 1/6/56 24/36/59 25/35/58
f 26/37/62 11/13/61 5/5/60
f 5/5/60 25/35/63 26/37/62
f 2/2/2 24/38/65 1/1/64
f 2/2/2 8/14/34 24/38/66
f 25/34/69 9/11/68 12/16/67
f 12/16/67 26/39/70 25/34/69
f 27/40/73 19/25/72 20/26/71
f 20/26/71 28/41/74 27/40/73
f 27/43/77 28/42/76 13/23/75
f 13/23/75 17/21/78 27/43/77
f 26/37/81 27/43/80 17/21/79
f 17/21/79 11/13/82 26/37/81
f 28/44/84 16/20/2 13/17/83
f 20/28/86 16/20/2 28/44/85
f 27/40/89 26/39/88 12/16/87
f 12/16/87 19/25/90 27/40/89
