# Blender v2.74 (sub 0) OBJ File: 'square_border.blend'
# www.blender.org
mtllib square_border.mtl
o Cube
v -0.223699 -0.063636 -0.102273
v -0.223699 -0.213636 -0.102273
v -0.323699 -0.213636 -0.102273
v -0.323699 -0.063636 -0.102273
v -0.223699 -0.063636 0.047727
v -0.223699 -0.213636 0.047727
v -0.323699 -0.213636 0.047727
v -0.323699 -0.063636 0.047727
v -0.223699 -0.213636 -0.102273
v -0.323699 -0.213636 -0.102273
v -0.223699 -0.213636 0.047727
v -0.323699 -0.213636 0.047727
v -0.223699 -0.313636 -0.102273
v -0.323699 -0.313636 -0.102273
v -0.223699 -0.313636 0.047727
v -0.323699 -0.313636 0.047727
v -0.073699 -0.213636 -0.102273
v -0.073699 -0.213636 0.047727
v -0.073699 -0.313636 -0.102273
v -0.073699 -0.313636 0.047727
v 0.236301 -0.063636 0.047727
v 0.236301 -0.213636 0.047727
v 0.336301 -0.213636 0.047727
v 0.336301 -0.063636 0.047727
v 0.236301 -0.063636 -0.102273
v 0.236301 -0.213636 -0.102273
v 0.336301 -0.213636 -0.102273
v 0.336301 -0.063636 -0.102273
v 0.236301 -0.213636 0.047727
v 0.336301 -0.213636 0.047727
v 0.236301 -0.213636 -0.102273
v 0.336301 -0.213636 -0.102273
v 0.236301 -0.313636 0.047727
v 0.336301 -0.313636 0.047727
v 0.236301 -0.313636 -0.102273
v 0.336301 -0.313636 -0.102273
v 0.086301 -0.213636 0.047727
v 0.086301 -0.213636 -0.102273
v 0.086301 -0.313636 0.047727
v 0.086301 -0.313636 -0.102273
v -0.223699 0.066364 0.047727
v -0.223699 0.216364 0.047727
v -0.323699 0.216364 0.047727
v -0.323699 0.066364 0.047727
v -0.223699 0.066364 -0.102273
v -0.223699 0.216364 -0.102273
v -0.323699 0.216364 -0.102273
v -0.323699 0.066364 -0.102273
v -0.223699 0.216364 0.047727
v -0.323699 0.216364 0.047727
v -0.223699 0.216364 -0.102273
v -0.323699 0.216364 -0.102273
v -0.223699 0.316364 0.047727
v -0.323699 0.316364 0.047727
v -0.223699 0.316364 -0.102273
v -0.323699 0.316364 -0.102273
v -0.073699 0.216364 0.047727
v -0.073699 0.216364 -0.102273
v -0.073699 0.316364 0.047727
v -0.073699 0.316364 -0.102273
v 0.236301 0.066364 -0.102273
v 0.236301 0.216364 -0.102273
v 0.336301 0.216364 -0.102273
v 0.336301 0.066364 -0.102273
v 0.236301 0.066364 0.047727
v 0.236301 0.216364 0.047727
v 0.336301 0.216364 0.047727
v 0.336301 0.066364 0.047727
v 0.236301 0.216364 -0.102273
v 0.336301 0.216364 -0.102273
v 0.236301 0.216364 0.047727
v 0.336301 0.216364 0.047727
v 0.236301 0.316364 -0.102273
v 0.336301 0.316364 -0.102273
v 0.236301 0.316364 0.047727
v 0.336301 0.316364 0.047727
v 0.086301 0.216364 -0.102273
v 0.086301 0.216364 0.047727
v 0.086301 0.316364 -0.102273
v 0.086301 0.316364 0.047727
v -0.026289 -0.184347 -0.027273
v 0.073711 -0.084347 0.114149
v -0.167710 -0.042926 -0.027273
v -0.067710 0.057074 0.114149
v 0.073711 -0.084347 -0.168694
v 0.173711 0.015653 -0.027273
v -0.067710 0.057074 -0.168694
v 0.032290 0.157074 -0.027273
vn 0.000000 -0.000000 -1.000000
vn 0.000000 0.000000 1.000000
vn 1.000000 -0.000000 -0.000000
vn -1.000000 0.000000 -0.000000
vn 0.000000 1.000000 0.000000
vn -0.000000 -1.000000 -0.000000
vn -0.500000 -0.500000 0.707100
vn -0.707100 0.707100 -0.000000
vn 0.500000 0.500000 -0.707100
vn 0.707100 -0.707100 0.000000
vn -0.500000 -0.500000 -0.707100
vn 0.500000 0.500000 0.707100
usemtl Material
s off
f 1//1 2//1 3//1 4//1
f 5//2 8//2 7//2 6//2
f 1//3 5//3 6//3 2//3
f 6//2 7//2 12//2 11//2
f 3//4 7//4 8//4 4//4
f 5//5 1//5 4//5 8//5
f 11//2 12//2 16//2 15//2
f 7//2 3//2 10//2 12//2
f 2//2 6//2 11//2 9//2
f 3//2 2//2 9//2 10//2
f 13//6 15//6 16//6 14//6
f 12//4 10//4 14//4 16//4
f 13//1 9//1 17//1 19//1
f 10//1 9//1 13//1 14//1
f 17//3 18//3 20//3 19//3
f 11//2 15//2 20//2 18//2
f 15//6 13//6 19//6 20//6
f 9//5 11//5 18//5 17//5
f 21//2 22//2 23//2 24//2
f 25//1 28//1 27//1 26//1
f 21//4 25//4 26//4 22//4
f 26//2 27//2 32//2 31//2
f 23//3 27//3 28//3 24//3
f 25//5 21//5 24//5 28//5
f 31//1 32//1 36//1 35//1
f 27//2 23//2 30//2 32//2
f 22//2 26//2 31//2 29//2
f 23//2 22//2 29//2 30//2
f 33//6 35//6 36//6 34//6
f 32//3 30//3 34//3 36//3
f 33//2 29//2 37//2 39//2
f 30//2 29//2 33//2 34//2
f 37//4 38//4 40//4 39//4
f 31//1 35//1 40//1 38//1
f 35//6 33//6 39//6 40//6
f 29//5 31//5 38//5 37//5
f 41//2 42//2 43//2 44//2
f 45//1 48//1 47//1 46//1
f 41//3 45//3 46//3 42//3
f 46//2 47//2 52//2 51//2
f 43//4 47//4 48//4 44//4
f 45//6 41//6 44//6 48//6
f 51//1 52//1 56//1 55//1
f 47//2 43//2 50//2 52//2
f 42//2 46//2 51//2 49//2
f 43//2 42//2 49//2 50//2
f 53//5 55//5 56//5 54//5
f 52//4 50//4 54//4 56//4
f 53//2 49//2 57//2 59//2
f 50//2 49//2 53//2 54//2
f 57//3 58//3 60//3 59//3
f 51//1 55//1 60//1 58//1
f 55//5 53//5 59//5 60//5
f 49//6 51//6 58//6 57//6
f 61//1 62//1 63//1 64//1
f 65//2 68//2 67//2 66//2
f 61//4 65//4 66//4 62//4
f 66//2 67//2 72//2 71//2
f 63//3 67//3 68//3 64//3
f 65//6 61//6 64//6 68//6
f 71//2 72//2 76//2 75//2
f 67//2 63//2 70//2 72//2
f 62//2 66//2 71//2 69//2
f 63//2 62//2 69//2 70//2
f 73//5 75//5 76//5 74//5
f 72//3 70//3 74//3 76//3
f 73//1 69//1 77//1 79//1
f 70//1 69//1 73//1 74//1
f 77//4 78//4 80//4 79//4
f 71//2 75//2 80//2 78//2
f 75//5 73//5 79//5 80//5
f 69//6 71//6 78//6 77//6
f 82//7 84//7 83//7 81//7
f 84//8 88//8 87//8 83//8
f 88//9 86//9 85//9 87//9
f 86//10 82//10 81//10 85//10
f 81//11 83//11 87//11 85//11
f 86//12 88//12 84//12 82//12
