# Made using Asset Forge (www.assetforge.io) version 1.2.1 

mtllib test.mtl 

g cylinder_vertex_4

v 0.5 1 3.609557E-16
v 0.3535534 1 0.3535534
v 0.3535534 1 -0.3535534
v 1.082867E-15 1 -0.5
v 7.219114E-16 1 0.5
v -0.3535534 1 -0.3535534
v -0.3535534 1 0.3535534
v -0.5 1 3.609557E-16
v 0.3535534 0 -0.3535534
v 0.5 0 3.609557E-16
v -0.3535534 0 -0.3535534
v 1.082867E-15 0 -0.5
v 0.3535534 0 0.3535534
v -0.5 0 3.609557E-16
v -0.3535534 0 0.3535534
v 7.219114E-16 0 0.5
vn 0 1 0
vn 0.9238795 0 -0.3826834
vn -0.3826834 0 -0.9238795
vn 0.9238795 0 0.3826834
vn -0.9238795 0 -0.3826834
vn -0.9238795 0 0.3826834
vn 0.3826834 0 0.9238795
vn 0.3826834 0 -0.9238795
vn 0 -1 0
vn -0.3826834 0 0.9238795
vt -0.5 3.609557E-16
vt -0.3535534 0.3535534
vt -0.3535534 -0.3535534
vt -1.082867E-15 -0.5
vt -7.219114E-16 0.5
vt 0.3535534 -0.3535534
vt 0.3535534 0.3535534
vt 0.5 3.609557E-16
vt 0.3535534 1
vt 0.3535534 0
vt -3.609557E-16 1
vt -3.609557E-16 0
vt -1.082867E-15 0
vt -1.082867E-15 1
vt -0.3535534 1
vt -0.3535534 0
vt 3.609557E-16 0
vt 3.609557E-16 1
vt 7.219114E-16 0
vt 7.219114E-16 1
vt -0.5 -3.609557E-16
vt -7.219114E-16 -0.5
vt -1.082867E-15 0.5
vt 0.5 -3.609557E-16

usemtl _defaultMat (Instance)
usemap _defaultMat (Instance)
f 3/3/1 2/2/1 1/1/1
f 2/2/1 3/3/1 4/4/1
f 2/2/1 4/4/1 5/5/1
f 5/5/1 4/4/1 6/6/1
f 5/5/1 6/6/1 7/7/1
f 7/7/1 6/6/1 8/8/1
f 1/11/2 9/10/2 3/9/2
f 9/10/2 1/11/2 10/12/2
f 6/9/3 12/13/3 11/10/3
f 12/13/3 6/9/3 4/14/3
f 2/15/4 10/12/4 1/11/4
f 10/12/4 2/15/4 13/16/4
f 14/17/5 6/15/5 11/16/5
f 6/15/5 14/17/5 8/18/5
f 15/10/6 8/18/6 14/17/6
f 8/18/6 15/10/6 7/9/6
f 2/9/7 16/19/7 13/10/7
f 16/19/7 2/9/7 5/20/7
f 4/14/8 9/16/8 12/13/8
f 9/16/8 4/14/8 3/15/8
f 13/3/9 9/2/9 10/21/9
f 9/2/9 13/3/9 16/22/9
f 9/2/9 16/22/9 12/23/9
f 12/23/9 16/22/9 11/7/9
f 11/7/9 16/22/9 15/6/9
f 11/7/9 15/6/9 14/24/9
f 5/20/10 15/16/10 16/19/10
f 15/16/10 5/20/10 7/15/10
